<mxfile host="app.diagrams.net" modified="2024-03-19T17:24:56.832Z" agent="Mozilla/5.0 (Windows NT 10.0; Win64; x64) AppleWebKit/537.36 (KHTML, like Gecko) Chrome/122.0.0.0 Safari/537.36" etag="_KDgxEani37K0uc_6byf" version="24.0.7" type="github" pages="8">
  <diagram name="Page-1" id="p1Pf8BhsBMIAO9jhMDzy">
    <mxGraphModel dx="794" dy="446" grid="1" gridSize="10" guides="1" tooltips="1" connect="1" arrows="1" fold="1" page="1" pageScale="1" pageWidth="827" pageHeight="1169" math="0" shadow="0">
      <root>
        <mxCell id="0" />
        <mxCell id="1" parent="0" />
        <mxCell id="KNTnn3jLifPohcnLgzz--2" value="" style="shape=link;html=1;rounded=0;" parent="1" edge="1">
          <mxGeometry width="100" relative="1" as="geometry">
            <mxPoint x="360" y="650" as="sourcePoint" />
            <mxPoint x="360" y="780" as="targetPoint" />
          </mxGeometry>
        </mxCell>
        <mxCell id="KNTnn3jLifPohcnLgzz--3" value="" style="shape=link;html=1;rounded=0;" parent="1" edge="1">
          <mxGeometry width="100" relative="1" as="geometry">
            <mxPoint x="310" y="670" as="sourcePoint" />
            <mxPoint x="500" y="670" as="targetPoint" />
          </mxGeometry>
        </mxCell>
        <mxCell id="KNTnn3jLifPohcnLgzz--4" value="a" style="text;html=1;align=center;verticalAlign=middle;resizable=0;points=[];autosize=1;strokeColor=none;fillColor=none;" parent="1" vertex="1">
          <mxGeometry x="375" y="638" width="30" height="30" as="geometry" />
        </mxCell>
        <mxCell id="KNTnn3jLifPohcnLgzz--7" value="b" style="text;html=1;align=center;verticalAlign=middle;resizable=0;points=[];autosize=1;strokeColor=none;fillColor=none;" parent="1" vertex="1">
          <mxGeometry x="450" y="638" width="30" height="30" as="geometry" />
        </mxCell>
        <mxCell id="KNTnn3jLifPohcnLgzz--8" value="A" style="text;html=1;align=center;verticalAlign=middle;resizable=0;points=[];autosize=1;strokeColor=none;fillColor=none;" parent="1" vertex="1">
          <mxGeometry x="315" y="678" width="30" height="30" as="geometry" />
        </mxCell>
        <mxCell id="KNTnn3jLifPohcnLgzz--13" value="B" style="text;html=1;align=center;verticalAlign=middle;resizable=0;points=[];autosize=1;strokeColor=none;fillColor=none;" parent="1" vertex="1">
          <mxGeometry x="315" y="708" width="30" height="30" as="geometry" />
        </mxCell>
        <mxCell id="KNTnn3jLifPohcnLgzz--15" value="C" style="ellipse;whiteSpace=wrap;html=1;aspect=fixed;" parent="1" vertex="1">
          <mxGeometry x="315" y="738" width="35" height="35" as="geometry" />
        </mxCell>
        <mxCell id="KNTnn3jLifPohcnLgzz--16" value="" style="endArrow=classic;html=1;rounded=0;" parent="1" edge="1">
          <mxGeometry width="50" height="50" relative="1" as="geometry">
            <mxPoint x="280" y="694" as="sourcePoint" />
            <mxPoint x="315" y="694" as="targetPoint" />
          </mxGeometry>
        </mxCell>
        <mxCell id="KNTnn3jLifPohcnLgzz--17" value="A, B" style="text;html=1;align=center;verticalAlign=middle;resizable=0;points=[];autosize=1;strokeColor=none;fillColor=none;" parent="1" vertex="1">
          <mxGeometry x="355" y="678" width="50" height="30" as="geometry" />
        </mxCell>
        <mxCell id="KNTnn3jLifPohcnLgzz--18" value="C" style="text;html=1;align=center;verticalAlign=middle;resizable=0;points=[];autosize=1;strokeColor=none;fillColor=none;" parent="1" vertex="1">
          <mxGeometry x="455" y="678" width="30" height="30" as="geometry" />
        </mxCell>
        <mxCell id="KNTnn3jLifPohcnLgzz--19" value="A" style="text;html=1;align=center;verticalAlign=middle;resizable=0;points=[];autosize=1;strokeColor=none;fillColor=none;" parent="1" vertex="1">
          <mxGeometry x="365" y="708" width="30" height="30" as="geometry" />
        </mxCell>
        <mxCell id="KNTnn3jLifPohcnLgzz--20" value="B" style="text;html=1;align=center;verticalAlign=middle;resizable=0;points=[];autosize=1;strokeColor=none;fillColor=none;" parent="1" vertex="1">
          <mxGeometry x="455" y="708" width="30" height="30" as="geometry" />
        </mxCell>
        <mxCell id="KNTnn3jLifPohcnLgzz--21" value="-" style="text;html=1;align=center;verticalAlign=middle;resizable=0;points=[];autosize=1;strokeColor=none;fillColor=none;" parent="1" vertex="1">
          <mxGeometry x="375" y="738" width="30" height="30" as="geometry" />
        </mxCell>
        <mxCell id="KNTnn3jLifPohcnLgzz--22" value="A, B" style="text;html=1;align=center;verticalAlign=middle;resizable=0;points=[];autosize=1;strokeColor=none;fillColor=none;" parent="1" vertex="1">
          <mxGeometry x="445" y="738" width="50" height="30" as="geometry" />
        </mxCell>
        <mxCell id="KNTnn3jLifPohcnLgzz--26" value="" style="edgeStyle=orthogonalEdgeStyle;rounded=0;orthogonalLoop=1;jettySize=auto;html=1;entryX=0;entryY=0.5;entryDx=0;entryDy=0;" parent="1" source="KNTnn3jLifPohcnLgzz--23" target="KNTnn3jLifPohcnLgzz--25" edge="1">
          <mxGeometry relative="1" as="geometry">
            <mxPoint x="370" y="916" as="targetPoint" />
          </mxGeometry>
        </mxCell>
        <mxCell id="KNTnn3jLifPohcnLgzz--28" value="" style="edgeStyle=orthogonalEdgeStyle;rounded=0;orthogonalLoop=1;jettySize=auto;html=1;" parent="1" source="KNTnn3jLifPohcnLgzz--23" target="KNTnn3jLifPohcnLgzz--27" edge="1">
          <mxGeometry relative="1" as="geometry" />
        </mxCell>
        <mxCell id="KNTnn3jLifPohcnLgzz--23" value="A" style="ellipse;whiteSpace=wrap;html=1;aspect=fixed;" parent="1" vertex="1">
          <mxGeometry x="250" y="890" width="50" height="50" as="geometry" />
        </mxCell>
        <mxCell id="KNTnn3jLifPohcnLgzz--25" value="B" style="ellipse;whiteSpace=wrap;html=1;aspect=fixed;" parent="1" vertex="1">
          <mxGeometry x="389" y="890" width="50" height="50" as="geometry" />
        </mxCell>
        <mxCell id="KNTnn3jLifPohcnLgzz--27" value="" style="ellipse;whiteSpace=wrap;html=1;aspect=fixed;" parent="1" vertex="1">
          <mxGeometry x="250" y="1020" width="50" height="50" as="geometry" />
        </mxCell>
        <mxCell id="KNTnn3jLifPohcnLgzz--30" value="" style="endArrow=classic;html=1;rounded=0;exitX=0.96;exitY=0.307;exitDx=0;exitDy=0;exitPerimeter=0;" parent="1" source="KNTnn3jLifPohcnLgzz--27" edge="1">
          <mxGeometry width="50" height="50" relative="1" as="geometry">
            <mxPoint x="284" y="1045" as="sourcePoint" />
            <mxPoint x="414" y="940" as="targetPoint" />
          </mxGeometry>
        </mxCell>
        <mxCell id="KNTnn3jLifPohcnLgzz--32" value="" style="curved=1;endArrow=classic;html=1;rounded=0;entryX=0.36;entryY=0.067;entryDx=0;entryDy=0;entryPerimeter=0;" parent="1" target="KNTnn3jLifPohcnLgzz--23" edge="1">
          <mxGeometry width="50" height="50" relative="1" as="geometry">
            <mxPoint x="280" y="890" as="sourcePoint" />
            <mxPoint x="330" y="840" as="targetPoint" />
            <Array as="points">
              <mxPoint x="300" y="890" />
              <mxPoint x="330" y="890" />
              <mxPoint x="310" y="870" />
              <mxPoint x="280" y="840" />
            </Array>
          </mxGeometry>
        </mxCell>
        <mxCell id="KNTnn3jLifPohcnLgzz--33" value="" style="curved=1;endArrow=classic;html=1;rounded=0;entryX=0;entryY=0;entryDx=0;entryDy=0;" parent="1" target="KNTnn3jLifPohcnLgzz--25" edge="1">
          <mxGeometry width="50" height="50" relative="1" as="geometry">
            <mxPoint x="416" y="890" as="sourcePoint" />
            <mxPoint x="395" y="889" as="targetPoint" />
            <Array as="points">
              <mxPoint x="466" y="890" />
              <mxPoint x="446" y="870" />
              <mxPoint x="416" y="840" />
            </Array>
          </mxGeometry>
        </mxCell>
        <mxCell id="KNTnn3jLifPohcnLgzz--34" value="a" style="text;html=1;align=center;verticalAlign=middle;resizable=0;points=[];autosize=1;strokeColor=none;fillColor=none;" parent="1" vertex="1">
          <mxGeometry x="285" y="828" width="30" height="30" as="geometry" />
        </mxCell>
        <mxCell id="KNTnn3jLifPohcnLgzz--36" value="b" style="text;html=1;align=center;verticalAlign=middle;resizable=0;points=[];autosize=1;strokeColor=none;fillColor=none;" parent="1" vertex="1">
          <mxGeometry x="425" y="828" width="30" height="30" as="geometry" />
        </mxCell>
        <mxCell id="KNTnn3jLifPohcnLgzz--37" value="C" style="ellipse;whiteSpace=wrap;html=1;aspect=fixed;" parent="1" vertex="1">
          <mxGeometry x="253" y="1023" width="44" height="44" as="geometry" />
        </mxCell>
        <mxCell id="KNTnn3jLifPohcnLgzz--42" value="" style="endArrow=classic;html=1;rounded=0;entryX=0.707;entryY=0.987;entryDx=0;entryDy=0;entryPerimeter=0;edgeStyle=orthogonalEdgeStyle;exitX=0;exitY=1;exitDx=0;exitDy=0;curved=1;" parent="1" source="KNTnn3jLifPohcnLgzz--25" target="KNTnn3jLifPohcnLgzz--23" edge="1">
          <mxGeometry width="50" height="50" relative="1" as="geometry">
            <mxPoint x="560" y="960" as="sourcePoint" />
            <mxPoint x="345" y="980" as="targetPoint" />
            <Array as="points">
              <mxPoint x="330" y="933" />
              <mxPoint x="330" y="950" />
              <mxPoint x="285" y="950" />
            </Array>
          </mxGeometry>
        </mxCell>
        <mxCell id="KNTnn3jLifPohcnLgzz--47" value="" style="curved=1;endArrow=classic;html=1;rounded=0;exitX=0;exitY=0.5;exitDx=0;exitDy=0;" parent="1" source="KNTnn3jLifPohcnLgzz--37" edge="1">
          <mxGeometry width="50" height="50" relative="1" as="geometry">
            <mxPoint x="210" y="987.21" as="sourcePoint" />
            <mxPoint x="260" y="937.21" as="targetPoint" />
            <Array as="points">
              <mxPoint x="250" y="1020" />
              <mxPoint x="260" y="987.21" />
              <mxPoint x="210" y="937.21" />
            </Array>
          </mxGeometry>
        </mxCell>
        <mxCell id="KNTnn3jLifPohcnLgzz--48" value="b" style="text;html=1;align=center;verticalAlign=middle;resizable=0;points=[];autosize=1;strokeColor=none;fillColor=none;" parent="1" vertex="1">
          <mxGeometry x="225" y="978" width="30" height="30" as="geometry" />
        </mxCell>
        <mxCell id="KNTnn3jLifPohcnLgzz--49" value="a" style="text;html=1;align=center;verticalAlign=middle;resizable=0;points=[];autosize=1;strokeColor=none;fillColor=none;" parent="1" vertex="1">
          <mxGeometry x="335" y="938" width="30" height="30" as="geometry" />
        </mxCell>
        <mxCell id="KNTnn3jLifPohcnLgzz--50" value="a" style="text;html=1;align=center;verticalAlign=middle;resizable=0;points=[];autosize=1;strokeColor=none;fillColor=none;" parent="1" vertex="1">
          <mxGeometry x="335" y="888" width="30" height="30" as="geometry" />
        </mxCell>
        <mxCell id="KNTnn3jLifPohcnLgzz--51" value="b" style="text;html=1;align=center;verticalAlign=middle;resizable=0;points=[];autosize=1;strokeColor=none;fillColor=none;" parent="1" vertex="1">
          <mxGeometry x="350" y="990" width="30" height="30" as="geometry" />
        </mxCell>
        <mxCell id="KNTnn3jLifPohcnLgzz--52" value="b" style="text;html=1;align=center;verticalAlign=middle;resizable=0;points=[];autosize=1;strokeColor=none;fillColor=none;" parent="1" vertex="1">
          <mxGeometry x="255" y="968" width="30" height="30" as="geometry" />
        </mxCell>
        <mxCell id="KNTnn3jLifPohcnLgzz--53" value="" style="endArrow=classic;html=1;rounded=0;strokeColor=#0000FF;" parent="1" edge="1">
          <mxGeometry width="50" height="50" relative="1" as="geometry">
            <mxPoint x="220" y="917" as="sourcePoint" />
            <mxPoint x="250" y="915" as="targetPoint" />
            <Array as="points">
              <mxPoint x="210" y="915" />
            </Array>
          </mxGeometry>
        </mxCell>
      </root>
    </mxGraphModel>
  </diagram>
  <diagram id="jopj-txdq0yjUNXsxnnz" name="Page-2">
    <mxGraphModel dx="794" dy="1426" grid="1" gridSize="10" guides="1" tooltips="1" connect="1" arrows="1" fold="1" page="1" pageScale="1" pageWidth="690" pageHeight="980" math="0" shadow="0">
      <root>
        <mxCell id="0" />
        <mxCell id="1" parent="0" />
        <mxCell id="7rjMRAkr2tT2P4sujftx-1" value="" style="shape=link;html=1;rounded=0;labelBackgroundColor=none;strokeColor=#788AA3;fontColor=default;" parent="1" edge="1">
          <mxGeometry width="100" relative="1" as="geometry">
            <mxPoint x="240" y="-568" as="sourcePoint" />
            <mxPoint x="240" y="-390" as="targetPoint" />
          </mxGeometry>
        </mxCell>
        <mxCell id="7rjMRAkr2tT2P4sujftx-2" value="" style="shape=link;html=1;rounded=0;labelBackgroundColor=none;strokeColor=#788AA3;fontColor=default;" parent="1" edge="1">
          <mxGeometry width="100" relative="1" as="geometry">
            <mxPoint x="190" y="-548" as="sourcePoint" />
            <mxPoint x="380" y="-548" as="targetPoint" />
          </mxGeometry>
        </mxCell>
        <mxCell id="7rjMRAkr2tT2P4sujftx-3" value="a" style="text;html=1;align=center;verticalAlign=middle;resizable=0;points=[];autosize=1;strokeColor=none;fillColor=none;labelBackgroundColor=none;fontColor=#46495D;" parent="1" vertex="1">
          <mxGeometry x="255" y="-580" width="30" height="30" as="geometry" />
        </mxCell>
        <mxCell id="7rjMRAkr2tT2P4sujftx-4" value="b" style="text;html=1;align=center;verticalAlign=middle;resizable=0;points=[];autosize=1;strokeColor=none;fillColor=none;labelBackgroundColor=none;fontColor=#46495D;" parent="1" vertex="1">
          <mxGeometry x="330" y="-580" width="30" height="30" as="geometry" />
        </mxCell>
        <mxCell id="7rjMRAkr2tT2P4sujftx-5" value="A" style="text;html=1;align=center;verticalAlign=middle;resizable=0;points=[];autosize=1;strokeColor=none;fillColor=none;labelBackgroundColor=none;fontColor=#46495D;" parent="1" vertex="1">
          <mxGeometry x="195" y="-540" width="30" height="30" as="geometry" />
        </mxCell>
        <mxCell id="7rjMRAkr2tT2P4sujftx-6" value="AB" style="text;html=1;align=center;verticalAlign=middle;resizable=0;points=[];autosize=1;strokeColor=none;fillColor=none;labelBackgroundColor=none;fontColor=#46495D;" parent="1" vertex="1">
          <mxGeometry x="190" y="-510" width="40" height="30" as="geometry" />
        </mxCell>
        <mxCell id="7rjMRAkr2tT2P4sujftx-8" value="" style="endArrow=classic;html=1;rounded=0;labelBackgroundColor=none;strokeColor=#788AA3;fontColor=default;" parent="1" edge="1">
          <mxGeometry width="50" height="50" relative="1" as="geometry">
            <mxPoint x="160" y="-524" as="sourcePoint" />
            <mxPoint x="195" y="-524" as="targetPoint" />
          </mxGeometry>
        </mxCell>
        <mxCell id="7rjMRAkr2tT2P4sujftx-9" value="AB" style="text;html=1;align=center;verticalAlign=middle;resizable=0;points=[];autosize=1;strokeColor=none;fillColor=none;labelBackgroundColor=none;fontColor=#46495D;" parent="1" vertex="1">
          <mxGeometry x="240" y="-540" width="40" height="30" as="geometry" />
        </mxCell>
        <mxCell id="7rjMRAkr2tT2P4sujftx-10" value="C" style="text;html=1;align=center;verticalAlign=middle;resizable=0;points=[];autosize=1;strokeColor=none;fillColor=none;labelBackgroundColor=none;fontColor=#46495D;" parent="1" vertex="1">
          <mxGeometry x="335" y="-540" width="30" height="30" as="geometry" />
        </mxCell>
        <mxCell id="7rjMRAkr2tT2P4sujftx-11" value="AB" style="text;html=1;align=center;verticalAlign=middle;resizable=0;points=[];autosize=1;strokeColor=none;fillColor=none;labelBackgroundColor=none;fontColor=#46495D;" parent="1" vertex="1">
          <mxGeometry x="240" y="-510" width="40" height="30" as="geometry" />
        </mxCell>
        <mxCell id="7rjMRAkr2tT2P4sujftx-12" value="BC" style="text;html=1;align=center;verticalAlign=middle;resizable=0;points=[];autosize=1;strokeColor=none;fillColor=none;labelBackgroundColor=none;fontColor=#46495D;" parent="1" vertex="1">
          <mxGeometry x="330" y="-510" width="40" height="30" as="geometry" />
        </mxCell>
        <mxCell id="7rjMRAkr2tT2P4sujftx-13" value="A" style="text;html=1;align=center;verticalAlign=middle;resizable=0;points=[];autosize=1;strokeColor=none;fillColor=none;labelBackgroundColor=none;fontColor=#46495D;" parent="1" vertex="1">
          <mxGeometry x="245" y="-480" width="30" height="30" as="geometry" />
        </mxCell>
        <mxCell id="7rjMRAkr2tT2P4sujftx-14" value="AB" style="text;html=1;align=center;verticalAlign=middle;resizable=0;points=[];autosize=1;strokeColor=none;fillColor=none;labelBackgroundColor=none;fontColor=#46495D;" parent="1" vertex="1">
          <mxGeometry x="330" y="-480" width="40" height="30" as="geometry" />
        </mxCell>
        <mxCell id="wDVnh82GxYdxPeo-nFR8-3" value="D" style="text;html=1;align=center;verticalAlign=middle;resizable=0;points=[];autosize=1;strokeColor=none;fillColor=none;labelBackgroundColor=none;fontColor=#46495D;" parent="1" vertex="1">
          <mxGeometry x="245" y="-442" width="30" height="30" as="geometry" />
        </mxCell>
        <mxCell id="fBuVQfRB7qNVJJhwX6AZ-1" value="AB" style="text;html=1;align=center;verticalAlign=middle;resizable=0;points=[];autosize=1;strokeColor=none;fillColor=none;labelBackgroundColor=none;fontColor=#46495D;" parent="1" vertex="1">
          <mxGeometry x="330" y="-442" width="40" height="30" as="geometry" />
        </mxCell>
        <mxCell id="fBuVQfRB7qNVJJhwX6AZ-4" value="D" style="text;html=1;align=center;verticalAlign=middle;resizable=0;points=[];autosize=1;strokeColor=none;fillColor=none;labelBackgroundColor=none;fontColor=#46495D;" parent="1" vertex="1">
          <mxGeometry x="245" y="-400" width="30" height="30" as="geometry" />
        </mxCell>
        <mxCell id="fBuVQfRB7qNVJJhwX6AZ-9" value="D" style="text;html=1;align=center;verticalAlign=middle;resizable=0;points=[];autosize=1;strokeColor=none;fillColor=none;labelBackgroundColor=none;fontColor=#46495D;" parent="1" vertex="1">
          <mxGeometry x="330" y="-400" width="30" height="30" as="geometry" />
        </mxCell>
        <mxCell id="fBuVQfRB7qNVJJhwX6AZ-10" value="BC" style="ellipse;whiteSpace=wrap;html=1;aspect=fixed;strokeColor=#788AA3;fontColor=#46495D;fillColor=#B2C9AB;labelBackgroundColor=none;" parent="1" vertex="1">
          <mxGeometry x="195" y="-480" width="30" height="30" as="geometry" />
        </mxCell>
        <mxCell id="fBuVQfRB7qNVJJhwX6AZ-20" value="C" style="ellipse;whiteSpace=wrap;html=1;aspect=fixed;strokeColor=#788AA3;fontColor=#46495D;fillColor=#B2C9AB;labelBackgroundColor=none;" parent="1" vertex="1">
          <mxGeometry x="195" y="-440" width="28" height="28" as="geometry" />
        </mxCell>
        <mxCell id="fBuVQfRB7qNVJJhwX6AZ-22" value="D" style="text;html=1;align=center;verticalAlign=middle;resizable=0;points=[];autosize=1;strokeColor=none;fillColor=none;fontColor=#46495D;" parent="1" vertex="1">
          <mxGeometry x="195" y="-400" width="30" height="30" as="geometry" />
        </mxCell>
        <mxCell id="fBuVQfRB7qNVJJhwX6AZ-25" value="" style="edgeStyle=orthogonalEdgeStyle;rounded=0;orthogonalLoop=1;jettySize=auto;html=1;strokeColor=#788AA3;fontColor=#46495D;fillColor=#B2C9AB;" parent="1" source="fBuVQfRB7qNVJJhwX6AZ-23" target="fBuVQfRB7qNVJJhwX6AZ-24" edge="1">
          <mxGeometry relative="1" as="geometry" />
        </mxCell>
        <mxCell id="fBuVQfRB7qNVJJhwX6AZ-29" value="" style="edgeStyle=orthogonalEdgeStyle;rounded=0;orthogonalLoop=1;jettySize=auto;html=1;strokeColor=#788AA3;fontColor=#46495D;fillColor=#B2C9AB;" parent="1" source="fBuVQfRB7qNVJJhwX6AZ-23" target="fBuVQfRB7qNVJJhwX6AZ-28" edge="1">
          <mxGeometry relative="1" as="geometry" />
        </mxCell>
        <mxCell id="fBuVQfRB7qNVJJhwX6AZ-23" value="A" style="ellipse;whiteSpace=wrap;html=1;aspect=fixed;strokeColor=#788AA3;fontColor=#46495D;fillColor=#B2C9AB;" parent="1" vertex="1">
          <mxGeometry x="459" y="-385" width="40" height="40" as="geometry" />
        </mxCell>
        <mxCell id="fBuVQfRB7qNVJJhwX6AZ-57" value="" style="edgeStyle=orthogonalEdgeStyle;rounded=0;orthogonalLoop=1;jettySize=auto;html=1;strokeColor=#788AA3;fontColor=#46495D;fillColor=#B2C9AB;" parent="1" source="fBuVQfRB7qNVJJhwX6AZ-24" target="fBuVQfRB7qNVJJhwX6AZ-56" edge="1">
          <mxGeometry relative="1" as="geometry" />
        </mxCell>
        <mxCell id="fBuVQfRB7qNVJJhwX6AZ-24" value="AB" style="ellipse;whiteSpace=wrap;html=1;aspect=fixed;strokeColor=#788AA3;fontColor=#46495D;fillColor=#B2C9AB;" parent="1" vertex="1">
          <mxGeometry x="579" y="-385" width="40" height="40" as="geometry" />
        </mxCell>
        <mxCell id="fBuVQfRB7qNVJJhwX6AZ-53" value="" style="edgeStyle=orthogonalEdgeStyle;rounded=0;orthogonalLoop=1;jettySize=auto;html=1;strokeColor=#788AA3;fontColor=#46495D;fillColor=#B2C9AB;" parent="1" source="fBuVQfRB7qNVJJhwX6AZ-28" target="fBuVQfRB7qNVJJhwX6AZ-52" edge="1">
          <mxGeometry relative="1" as="geometry" />
        </mxCell>
        <mxCell id="fBuVQfRB7qNVJJhwX6AZ-28" value="C" style="ellipse;shape=doubleEllipse;html=1;dashed=0;whiteSpace=wrap;aspect=fixed;strokeColor=#788AA3;fontColor=#46495D;fillColor=#B2C9AB;" parent="1" vertex="1">
          <mxGeometry x="459" y="-465" width="40" height="40" as="geometry" />
        </mxCell>
        <mxCell id="fBuVQfRB7qNVJJhwX6AZ-52" value="D" style="ellipse;whiteSpace=wrap;html=1;fillColor=#B2C9AB;strokeColor=#788AA3;fontColor=#46495D;dashed=0;" parent="1" vertex="1">
          <mxGeometry x="579" y="-465" width="40" height="40" as="geometry" />
        </mxCell>
        <mxCell id="fBuVQfRB7qNVJJhwX6AZ-56" value="BC" style="ellipse;shape=doubleEllipse;html=1;dashed=0;whiteSpace=wrap;aspect=fixed;strokeColor=#788AA3;fontColor=#46495D;fillColor=#B2C9AB;" parent="1" vertex="1">
          <mxGeometry x="579" y="-300" width="40" height="40" as="geometry" />
        </mxCell>
        <mxCell id="fBuVQfRB7qNVJJhwX6AZ-59" value="" style="endArrow=classic;html=1;rounded=0;strokeColor=#788AA3;fontColor=#46495D;fillColor=#B2C9AB;entryX=1;entryY=1;entryDx=0;entryDy=0;" parent="1" target="fBuVQfRB7qNVJJhwX6AZ-23" edge="1">
          <mxGeometry width="50" height="50" relative="1" as="geometry">
            <mxPoint x="579" y="-280" as="sourcePoint" />
            <mxPoint x="539" y="-330" as="targetPoint" />
          </mxGeometry>
        </mxCell>
        <mxCell id="fBuVQfRB7qNVJJhwX6AZ-60" value="a" style="text;html=1;align=center;verticalAlign=middle;resizable=0;points=[];autosize=1;strokeColor=none;fillColor=none;fontColor=#46495D;" parent="1" vertex="1">
          <mxGeometry x="515" y="-322" width="30" height="30" as="geometry" />
        </mxCell>
        <mxCell id="fBuVQfRB7qNVJJhwX6AZ-61" value="b" style="text;html=1;align=center;verticalAlign=middle;resizable=0;points=[];autosize=1;strokeColor=none;fillColor=none;fontColor=#46495D;" parent="1" vertex="1">
          <mxGeometry x="455" y="-412" width="30" height="30" as="geometry" />
        </mxCell>
        <mxCell id="fBuVQfRB7qNVJJhwX6AZ-62" value="a" style="text;html=1;align=center;verticalAlign=middle;resizable=0;points=[];autosize=1;strokeColor=none;fillColor=none;fontColor=#46495D;" parent="1" vertex="1">
          <mxGeometry x="525" y="-392" width="30" height="30" as="geometry" />
        </mxCell>
        <mxCell id="fBuVQfRB7qNVJJhwX6AZ-63" value="b" style="text;html=1;align=center;verticalAlign=middle;resizable=0;points=[];autosize=1;strokeColor=none;fillColor=none;fontColor=#46495D;" parent="1" vertex="1">
          <mxGeometry x="595" y="-342" width="30" height="30" as="geometry" />
        </mxCell>
        <mxCell id="fBuVQfRB7qNVJJhwX6AZ-64" value="a" style="text;html=1;align=center;verticalAlign=middle;resizable=0;points=[];autosize=1;strokeColor=none;fillColor=none;fontColor=#46495D;" parent="1" vertex="1">
          <mxGeometry x="525" y="-470" width="30" height="30" as="geometry" />
        </mxCell>
        <mxCell id="fBuVQfRB7qNVJJhwX6AZ-65" value="" style="curved=1;endArrow=classic;html=1;rounded=0;strokeColor=#788AA3;fontColor=#46495D;fillColor=#B2C9AB;" parent="1" edge="1">
          <mxGeometry width="50" height="50" relative="1" as="geometry">
            <mxPoint x="616" y="-364" as="sourcePoint" />
            <mxPoint x="606" y="-384" as="targetPoint" />
            <Array as="points">
              <mxPoint x="666" y="-364" />
              <mxPoint x="616" y="-414" />
            </Array>
          </mxGeometry>
        </mxCell>
        <mxCell id="fBuVQfRB7qNVJJhwX6AZ-68" value="a" style="text;html=1;align=center;verticalAlign=middle;resizable=0;points=[];autosize=1;strokeColor=none;fillColor=none;fontColor=#46495D;" parent="1" vertex="1">
          <mxGeometry x="635" y="-412" width="30" height="30" as="geometry" />
        </mxCell>
        <mxCell id="fBuVQfRB7qNVJJhwX6AZ-69" value="" style="endArrow=classic;html=1;rounded=0;strokeColor=#788AA3;fontColor=#46495D;fillColor=#B2C9AB;entryX=0;entryY=0;entryDx=0;entryDy=0;" parent="1" target="fBuVQfRB7qNVJJhwX6AZ-24" edge="1">
          <mxGeometry width="50" height="50" relative="1" as="geometry">
            <mxPoint x="495" y="-432" as="sourcePoint" />
            <mxPoint x="545" y="-392" as="targetPoint" />
          </mxGeometry>
        </mxCell>
        <mxCell id="fBuVQfRB7qNVJJhwX6AZ-70" value="b" style="text;html=1;align=center;verticalAlign=middle;resizable=0;points=[];autosize=1;strokeColor=none;fillColor=none;fontColor=#46495D;" parent="1" vertex="1">
          <mxGeometry x="525" y="-432" width="30" height="30" as="geometry" />
        </mxCell>
        <mxCell id="fBuVQfRB7qNVJJhwX6AZ-72" value="" style="curved=1;endArrow=classic;html=1;rounded=0;strokeColor=#788AA3;fontColor=#46495D;fillColor=#B2C9AB;" parent="1" edge="1">
          <mxGeometry width="50" height="50" relative="1" as="geometry">
            <mxPoint x="580" y="-292" as="sourcePoint" />
            <mxPoint x="590" y="-352" as="targetPoint" />
            <Array as="points">
              <mxPoint x="555" y="-329" />
              <mxPoint x="565" y="-349" />
              <mxPoint x="580" y="-349" />
            </Array>
          </mxGeometry>
        </mxCell>
        <mxCell id="fBuVQfRB7qNVJJhwX6AZ-75" value="b" style="text;html=1;align=center;verticalAlign=middle;resizable=0;points=[];autosize=1;strokeColor=none;fillColor=none;fontColor=#46495D;" parent="1" vertex="1">
          <mxGeometry x="535" y="-342" width="30" height="30" as="geometry" />
        </mxCell>
        <mxCell id="fBuVQfRB7qNVJJhwX6AZ-76" value="" style="endArrow=classic;html=1;rounded=0;strokeColor=#788AA3;fontColor=#46495D;fillColor=#B2C9AB;" parent="1" edge="1">
          <mxGeometry width="50" height="50" relative="1" as="geometry">
            <mxPoint x="428" y="-362" as="sourcePoint" />
            <mxPoint x="458" y="-362" as="targetPoint" />
          </mxGeometry>
        </mxCell>
        <mxCell id="fBuVQfRB7qNVJJhwX6AZ-78" value="" style="curved=1;endArrow=classic;html=1;rounded=0;strokeColor=#788AA3;fontColor=#46495D;fillColor=#B2C9AB;" parent="1" edge="1">
          <mxGeometry width="50" height="50" relative="1" as="geometry">
            <mxPoint x="620" y="-443" as="sourcePoint" />
            <mxPoint x="610" y="-463" as="targetPoint" />
            <Array as="points">
              <mxPoint x="670" y="-443" />
              <mxPoint x="620" y="-493" />
            </Array>
          </mxGeometry>
        </mxCell>
        <mxCell id="fBuVQfRB7qNVJJhwX6AZ-79" value="a,b" style="text;html=1;align=center;verticalAlign=middle;resizable=0;points=[];autosize=1;strokeColor=none;fillColor=none;fontColor=#46495D;" parent="1" vertex="1">
          <mxGeometry x="630" y="-492" width="40" height="30" as="geometry" />
        </mxCell>
      </root>
    </mxGraphModel>
  </diagram>
  <diagram id="USOPHFGn-ly_K1TNCV_O" name="Page-3">
    <mxGraphModel dx="794" dy="1426" grid="1" gridSize="10" guides="1" tooltips="1" connect="1" arrows="1" fold="1" page="1" pageScale="1" pageWidth="690" pageHeight="980" math="0" shadow="0">
      <root>
        <mxCell id="0" />
        <mxCell id="1" parent="0" />
        <mxCell id="a84HzaZNg3lfGE7qP1Ut-1" value="" style="edgeStyle=orthogonalEdgeStyle;rounded=0;orthogonalLoop=1;jettySize=auto;html=1;strokeColor=#788AA3;fontColor=#46495D;fillColor=#B2C9AB;" parent="1" source="a84HzaZNg3lfGE7qP1Ut-2" target="a84HzaZNg3lfGE7qP1Ut-3" edge="1">
          <mxGeometry relative="1" as="geometry" />
        </mxCell>
        <mxCell id="a84HzaZNg3lfGE7qP1Ut-2" value="A" style="ellipse;whiteSpace=wrap;html=1;aspect=fixed;strokeColor=#788AA3;fontColor=#46495D;fillColor=#B2C9AB;" parent="1" vertex="1">
          <mxGeometry x="82" y="-611" width="40" height="40" as="geometry" />
        </mxCell>
        <mxCell id="a84HzaZNg3lfGE7qP1Ut-6" value="" style="edgeStyle=orthogonalEdgeStyle;rounded=0;orthogonalLoop=1;jettySize=auto;html=1;strokeColor=#788AA3;fontColor=#46495D;fillColor=#B2C9AB;" parent="1" source="a84HzaZNg3lfGE7qP1Ut-3" edge="1">
          <mxGeometry relative="1" as="geometry">
            <mxPoint x="322" y="-591" as="targetPoint" />
          </mxGeometry>
        </mxCell>
        <mxCell id="a84HzaZNg3lfGE7qP1Ut-3" value="B" style="ellipse;whiteSpace=wrap;html=1;aspect=fixed;strokeColor=#788AA3;fontColor=#46495D;fillColor=#B2C9AB;" parent="1" vertex="1">
          <mxGeometry x="202" y="-611" width="40" height="40" as="geometry" />
        </mxCell>
        <mxCell id="a84HzaZNg3lfGE7qP1Ut-4" value="" style="endArrow=classic;html=1;rounded=0;strokeColor=#788AA3;fontColor=#46495D;fillColor=#B2C9AB;" parent="1" edge="1">
          <mxGeometry width="50" height="50" relative="1" as="geometry">
            <mxPoint x="51" y="-588" as="sourcePoint" />
            <mxPoint x="81" y="-588" as="targetPoint" />
          </mxGeometry>
        </mxCell>
        <mxCell id="8p4VS6UOb_lBKMylGWX7-1" value="" style="curved=1;endArrow=classic;html=1;rounded=0;strokeColor=#788AA3;fontColor=#46495D;fillColor=#B2C9AB;exitX=1;exitY=0.5;exitDx=0;exitDy=0;" parent="1" edge="1">
          <mxGeometry width="50" height="50" relative="1" as="geometry">
            <mxPoint x="362" y="-591" as="sourcePoint" />
            <mxPoint x="345" y="-610" as="targetPoint" />
            <Array as="points">
              <mxPoint x="405" y="-590" />
              <mxPoint x="355" y="-640" />
            </Array>
          </mxGeometry>
        </mxCell>
        <mxCell id="8p4VS6UOb_lBKMylGWX7-2" value="a,b" style="text;html=1;align=center;verticalAlign=middle;resizable=0;points=[];autosize=1;strokeColor=none;fillColor=none;fontColor=#46495D;" parent="1" vertex="1">
          <mxGeometry x="370" y="-642" width="40" height="30" as="geometry" />
        </mxCell>
        <mxCell id="8p4VS6UOb_lBKMylGWX7-3" value="" style="curved=1;endArrow=classic;html=1;rounded=0;strokeColor=#788AA3;fontColor=#46495D;fillColor=#B2C9AB;exitX=1;exitY=0;exitDx=0;exitDy=0;entryX=0.45;entryY=0.025;entryDx=0;entryDy=0;entryPerimeter=0;" parent="1" source="a84HzaZNg3lfGE7qP1Ut-3" target="a84HzaZNg3lfGE7qP1Ut-3" edge="1">
          <mxGeometry width="50" height="50" relative="1" as="geometry">
            <mxPoint x="227" y="-596" as="sourcePoint" />
            <mxPoint x="217" y="-616" as="targetPoint" />
            <Array as="points">
              <mxPoint x="277" y="-596" />
              <mxPoint x="227" y="-646" />
            </Array>
          </mxGeometry>
        </mxCell>
        <mxCell id="8p4VS6UOb_lBKMylGWX7-4" value="" style="curved=1;endArrow=classic;html=1;rounded=0;strokeColor=#788AA3;fontColor=#46495D;fillColor=#B2C9AB;exitX=1;exitY=0.5;exitDx=0;exitDy=0;entryX=0.5;entryY=0;entryDx=0;entryDy=0;" parent="1" target="a84HzaZNg3lfGE7qP1Ut-2" edge="1">
          <mxGeometry width="50" height="50" relative="1" as="geometry">
            <mxPoint x="119" y="-595" as="sourcePoint" />
            <mxPoint x="107" y="-616" as="targetPoint" />
            <Array as="points">
              <mxPoint x="167" y="-596" />
              <mxPoint x="117" y="-646" />
            </Array>
          </mxGeometry>
        </mxCell>
        <mxCell id="q8BVip3CGLh5O2HrdUJY-1" value="C" style="ellipse;shape=doubleEllipse;html=1;dashed=0;whiteSpace=wrap;aspect=fixed;strokeColor=#788AA3;fontColor=#46495D;fillColor=#B2C9AB;" parent="1" vertex="1">
          <mxGeometry x="320" y="-611" width="40" height="40" as="geometry" />
        </mxCell>
        <mxCell id="q8BVip3CGLh5O2HrdUJY-2" value="a,b" style="text;html=1;align=center;verticalAlign=middle;resizable=0;points=[];autosize=1;strokeColor=none;fillColor=none;fontColor=#46495D;" parent="1" vertex="1">
          <mxGeometry x="240" y="-642" width="40" height="30" as="geometry" />
        </mxCell>
        <mxCell id="q8BVip3CGLh5O2HrdUJY-3" value="a,b" style="text;html=1;align=center;verticalAlign=middle;resizable=0;points=[];autosize=1;strokeColor=none;fillColor=none;fontColor=#46495D;" parent="1" vertex="1">
          <mxGeometry x="120" y="-642" width="40" height="30" as="geometry" />
        </mxCell>
        <mxCell id="q8BVip3CGLh5O2HrdUJY-4" value="a" style="text;html=1;align=center;verticalAlign=middle;resizable=0;points=[];autosize=1;strokeColor=none;fillColor=none;fontColor=#46495D;" parent="1" vertex="1">
          <mxGeometry x="155" y="-622" width="30" height="30" as="geometry" />
        </mxCell>
        <mxCell id="q8BVip3CGLh5O2HrdUJY-5" value="a" style="text;html=1;align=center;verticalAlign=middle;resizable=0;points=[];autosize=1;strokeColor=none;fillColor=none;fontColor=#46495D;" parent="1" vertex="1">
          <mxGeometry x="275" y="-612" width="30" height="30" as="geometry" />
        </mxCell>
        <mxCell id="sOhB36OxOWdWSNMFx3C_-1" value="" style="shape=link;html=1;rounded=0;labelBackgroundColor=none;strokeColor=#788AA3;fontColor=default;" parent="1" edge="1">
          <mxGeometry width="100" relative="1" as="geometry">
            <mxPoint x="315" y="-518" as="sourcePoint" />
            <mxPoint x="315" y="-390" as="targetPoint" />
          </mxGeometry>
        </mxCell>
        <mxCell id="sOhB36OxOWdWSNMFx3C_-2" value="" style="shape=link;html=1;rounded=0;labelBackgroundColor=none;strokeColor=#788AA3;fontColor=default;" parent="1" edge="1">
          <mxGeometry width="100" relative="1" as="geometry">
            <mxPoint x="265" y="-498" as="sourcePoint" />
            <mxPoint x="455" y="-498" as="targetPoint" />
          </mxGeometry>
        </mxCell>
        <mxCell id="sOhB36OxOWdWSNMFx3C_-3" value="a" style="text;html=1;align=center;verticalAlign=middle;resizable=0;points=[];autosize=1;strokeColor=none;fillColor=none;labelBackgroundColor=none;fontColor=#46495D;" parent="1" vertex="1">
          <mxGeometry x="320" y="-530" width="30" height="30" as="geometry" />
        </mxCell>
        <mxCell id="sOhB36OxOWdWSNMFx3C_-4" value="b" style="text;html=1;align=center;verticalAlign=middle;resizable=0;points=[];autosize=1;strokeColor=none;fillColor=none;labelBackgroundColor=none;fontColor=#46495D;" parent="1" vertex="1">
          <mxGeometry x="410" y="-530" width="30" height="30" as="geometry" />
        </mxCell>
        <mxCell id="sOhB36OxOWdWSNMFx3C_-5" value="A" style="text;html=1;align=center;verticalAlign=middle;resizable=0;points=[];autosize=1;strokeColor=none;fillColor=none;labelBackgroundColor=none;fontColor=#46495D;" parent="1" vertex="1">
          <mxGeometry x="270" y="-490" width="30" height="30" as="geometry" />
        </mxCell>
        <mxCell id="sOhB36OxOWdWSNMFx3C_-6" value="AB" style="text;html=1;align=center;verticalAlign=middle;resizable=0;points=[];autosize=1;strokeColor=none;fillColor=none;labelBackgroundColor=none;fontColor=#46495D;" parent="1" vertex="1">
          <mxGeometry x="265" y="-460" width="40" height="30" as="geometry" />
        </mxCell>
        <mxCell id="sOhB36OxOWdWSNMFx3C_-7" value="" style="endArrow=classic;html=1;rounded=0;labelBackgroundColor=none;strokeColor=#788AA3;fontColor=default;" parent="1" edge="1">
          <mxGeometry width="50" height="50" relative="1" as="geometry">
            <mxPoint x="235" y="-474" as="sourcePoint" />
            <mxPoint x="270" y="-474" as="targetPoint" />
          </mxGeometry>
        </mxCell>
        <mxCell id="sOhB36OxOWdWSNMFx3C_-8" value="A, B" style="text;html=1;align=center;verticalAlign=middle;resizable=0;points=[];autosize=1;strokeColor=none;fillColor=none;labelBackgroundColor=none;fontColor=#46495D;" parent="1" vertex="1">
          <mxGeometry x="310" y="-490" width="50" height="30" as="geometry" />
        </mxCell>
        <mxCell id="sOhB36OxOWdWSNMFx3C_-9" value="A" style="text;html=1;align=center;verticalAlign=middle;resizable=0;points=[];autosize=1;strokeColor=none;fillColor=none;labelBackgroundColor=none;fontColor=#46495D;" parent="1" vertex="1">
          <mxGeometry x="410" y="-490" width="30" height="30" as="geometry" />
        </mxCell>
        <mxCell id="sOhB36OxOWdWSNMFx3C_-10" value="ABC" style="text;html=1;align=center;verticalAlign=middle;resizable=0;points=[];autosize=1;strokeColor=none;fillColor=none;labelBackgroundColor=none;fontColor=#46495D;" parent="1" vertex="1">
          <mxGeometry x="310" y="-460" width="50" height="30" as="geometry" />
        </mxCell>
        <mxCell id="sOhB36OxOWdWSNMFx3C_-11" value="AB" style="text;html=1;align=center;verticalAlign=middle;resizable=0;points=[];autosize=1;strokeColor=none;fillColor=none;labelBackgroundColor=none;fontColor=#46495D;" parent="1" vertex="1">
          <mxGeometry x="405" y="-460" width="40" height="30" as="geometry" />
        </mxCell>
        <mxCell id="sOhB36OxOWdWSNMFx3C_-12" value="ABC" style="text;html=1;align=center;verticalAlign=middle;resizable=0;points=[];autosize=1;strokeColor=none;fillColor=none;labelBackgroundColor=none;fontColor=#46495D;" parent="1" vertex="1">
          <mxGeometry x="310" y="-430" width="50" height="30" as="geometry" />
        </mxCell>
        <mxCell id="sOhB36OxOWdWSNMFx3C_-13" value="ABC" style="text;html=1;align=center;verticalAlign=middle;resizable=0;points=[];autosize=1;strokeColor=none;fillColor=none;labelBackgroundColor=none;fontColor=#46495D;" parent="1" vertex="1">
          <mxGeometry x="400" y="-430" width="50" height="30" as="geometry" />
        </mxCell>
        <mxCell id="sOhB36OxOWdWSNMFx3C_-21" value="// AB déjà traite" style="text;html=1;align=center;verticalAlign=middle;resizable=0;points=[];autosize=1;strokeColor=none;fillColor=none;fontColor=#46495D;" parent="1" vertex="1">
          <mxGeometry x="490" y="-460" width="100" height="30" as="geometry" />
        </mxCell>
        <mxCell id="sOhB36OxOWdWSNMFx3C_-23" value="ABC" style="text;html=1;align=center;verticalAlign=middle;resizable=0;points=[];autosize=1;strokeColor=none;fillColor=none;fontColor=#46495D;" parent="1" vertex="1">
          <mxGeometry x="260" y="-430" width="50" height="30" as="geometry" />
        </mxCell>
        <mxCell id="sOhB36OxOWdWSNMFx3C_-24" value="// Les etats finaux : tous les etats contenant EF" style="text;html=1;align=center;verticalAlign=middle;resizable=0;points=[];autosize=1;strokeColor=none;fillColor=none;fontColor=#46495D;" parent="1" vertex="1">
          <mxGeometry x="25" y="-350" width="270" height="30" as="geometry" />
        </mxCell>
        <mxCell id="DVSc9Z53ugBg5MTTOz-Y-1" value="ABC" style="ellipse;shape=doubleEllipse;html=1;dashed=0;whiteSpace=wrap;aspect=fixed;strokeColor=#788AA3;fontColor=#46495D;fillColor=#B2C9AB;" parent="1" vertex="1">
          <mxGeometry x="315" y="-355" width="40" height="40" as="geometry" />
        </mxCell>
        <mxCell id="DVSc9Z53ugBg5MTTOz-Y-5" value="" style="edgeStyle=orthogonalEdgeStyle;rounded=0;orthogonalLoop=1;jettySize=auto;html=1;strokeColor=#788AA3;fontColor=#46495D;fillColor=#B2C9AB;" parent="1" source="DVSc9Z53ugBg5MTTOz-Y-4" target="sOhB36OxOWdWSNMFx3C_-23" edge="1">
          <mxGeometry relative="1" as="geometry" />
        </mxCell>
        <mxCell id="DVSc9Z53ugBg5MTTOz-Y-4" value="EF" style="text;html=1;align=center;verticalAlign=middle;resizable=0;points=[];autosize=1;strokeColor=none;fillColor=none;fontColor=#46495D;" parent="1" vertex="1">
          <mxGeometry x="162" y="-430" width="40" height="30" as="geometry" />
        </mxCell>
        <mxCell id="DVSc9Z53ugBg5MTTOz-Y-6" value="" style="edgeStyle=orthogonalEdgeStyle;rounded=0;orthogonalLoop=1;jettySize=auto;html=1;strokeColor=#788AA3;fontColor=#46495D;fillColor=#B2C9AB;" parent="1" source="DVSc9Z53ugBg5MTTOz-Y-7" target="DVSc9Z53ugBg5MTTOz-Y-9" edge="1">
          <mxGeometry relative="1" as="geometry" />
        </mxCell>
        <mxCell id="DVSc9Z53ugBg5MTTOz-Y-7" value="A" style="ellipse;whiteSpace=wrap;html=1;aspect=fixed;strokeColor=#788AA3;fontColor=#46495D;fillColor=#B2C9AB;" parent="1" vertex="1">
          <mxGeometry x="168" y="-273" width="40" height="40" as="geometry" />
        </mxCell>
        <mxCell id="DVSc9Z53ugBg5MTTOz-Y-8" value="" style="edgeStyle=orthogonalEdgeStyle;rounded=0;orthogonalLoop=1;jettySize=auto;html=1;strokeColor=#788AA3;fontColor=#46495D;fillColor=#B2C9AB;" parent="1" source="DVSc9Z53ugBg5MTTOz-Y-9" edge="1">
          <mxGeometry relative="1" as="geometry">
            <mxPoint x="408" y="-253" as="targetPoint" />
          </mxGeometry>
        </mxCell>
        <mxCell id="DVSc9Z53ugBg5MTTOz-Y-9" value="AB" style="ellipse;whiteSpace=wrap;html=1;aspect=fixed;strokeColor=#788AA3;fontColor=#46495D;fillColor=#B2C9AB;" parent="1" vertex="1">
          <mxGeometry x="288" y="-273" width="40" height="40" as="geometry" />
        </mxCell>
        <mxCell id="DVSc9Z53ugBg5MTTOz-Y-10" value="" style="endArrow=classic;html=1;rounded=0;strokeColor=#788AA3;fontColor=#46495D;fillColor=#B2C9AB;" parent="1" edge="1">
          <mxGeometry width="50" height="50" relative="1" as="geometry">
            <mxPoint x="137" y="-250" as="sourcePoint" />
            <mxPoint x="167" y="-250" as="targetPoint" />
          </mxGeometry>
        </mxCell>
        <mxCell id="DVSc9Z53ugBg5MTTOz-Y-11" value="" style="curved=1;endArrow=classic;html=1;rounded=0;strokeColor=#788AA3;fontColor=#46495D;fillColor=#B2C9AB;exitX=1;exitY=0.5;exitDx=0;exitDy=0;" parent="1" edge="1">
          <mxGeometry width="50" height="50" relative="1" as="geometry">
            <mxPoint x="448" y="-253" as="sourcePoint" />
            <mxPoint x="431" y="-272" as="targetPoint" />
            <Array as="points">
              <mxPoint x="491" y="-252" />
              <mxPoint x="441" y="-302" />
            </Array>
          </mxGeometry>
        </mxCell>
        <mxCell id="DVSc9Z53ugBg5MTTOz-Y-12" value="a,b" style="text;html=1;align=center;verticalAlign=middle;resizable=0;points=[];autosize=1;strokeColor=none;fillColor=none;fontColor=#46495D;" parent="1" vertex="1">
          <mxGeometry x="456" y="-304" width="40" height="30" as="geometry" />
        </mxCell>
        <mxCell id="DVSc9Z53ugBg5MTTOz-Y-13" value="ABC" style="ellipse;shape=doubleEllipse;html=1;dashed=0;whiteSpace=wrap;aspect=fixed;strokeColor=#788AA3;fontColor=#46495D;fillColor=#B2C9AB;" parent="1" vertex="1">
          <mxGeometry x="406" y="-273" width="40" height="40" as="geometry" />
        </mxCell>
        <mxCell id="DVSc9Z53ugBg5MTTOz-Y-14" value="b" style="text;html=1;align=center;verticalAlign=middle;resizable=0;points=[];autosize=1;strokeColor=none;fillColor=none;fontColor=#46495D;" parent="1" vertex="1">
          <mxGeometry x="338" y="-304" width="30" height="30" as="geometry" />
        </mxCell>
        <mxCell id="DVSc9Z53ugBg5MTTOz-Y-15" value="b" style="text;html=1;align=center;verticalAlign=middle;resizable=0;points=[];autosize=1;strokeColor=none;fillColor=none;fontColor=#46495D;" parent="1" vertex="1">
          <mxGeometry x="211" y="-304" width="30" height="30" as="geometry" />
        </mxCell>
        <mxCell id="DVSc9Z53ugBg5MTTOz-Y-16" value="a" style="text;html=1;align=center;verticalAlign=middle;resizable=0;points=[];autosize=1;strokeColor=none;fillColor=none;fontColor=#46495D;" parent="1" vertex="1">
          <mxGeometry x="241" y="-284" width="30" height="30" as="geometry" />
        </mxCell>
        <mxCell id="DVSc9Z53ugBg5MTTOz-Y-17" value="a" style="text;html=1;align=center;verticalAlign=middle;resizable=0;points=[];autosize=1;strokeColor=none;fillColor=none;fontColor=#46495D;" parent="1" vertex="1">
          <mxGeometry x="361" y="-274" width="30" height="30" as="geometry" />
        </mxCell>
        <mxCell id="DVSc9Z53ugBg5MTTOz-Y-22" value="" style="curved=1;endArrow=classic;html=1;rounded=0;strokeColor=#788AA3;fontColor=#46495D;fillColor=#B2C9AB;exitX=1;exitY=0.5;exitDx=0;exitDy=0;entryX=0.5;entryY=0;entryDx=0;entryDy=0;" parent="1" edge="1">
          <mxGeometry width="50" height="50" relative="1" as="geometry">
            <mxPoint x="205" y="-253" as="sourcePoint" />
            <mxPoint x="188" y="-269" as="targetPoint" />
            <Array as="points">
              <mxPoint x="253" y="-254" />
              <mxPoint x="203" y="-304" />
            </Array>
          </mxGeometry>
        </mxCell>
        <mxCell id="DVSc9Z53ugBg5MTTOz-Y-23" value="" style="curved=1;endArrow=classic;html=1;rounded=0;strokeColor=#788AA3;fontColor=#46495D;fillColor=#B2C9AB;exitX=1;exitY=0.5;exitDx=0;exitDy=0;entryX=0.5;entryY=0;entryDx=0;entryDy=0;" parent="1" edge="1">
          <mxGeometry width="50" height="50" relative="1" as="geometry">
            <mxPoint x="325" y="-256" as="sourcePoint" />
            <mxPoint x="308" y="-272" as="targetPoint" />
            <Array as="points">
              <mxPoint x="373" y="-257" />
              <mxPoint x="323" y="-307" />
            </Array>
          </mxGeometry>
        </mxCell>
      </root>
    </mxGraphModel>
  </diagram>
  <diagram id="HpqSzkpPRH5aMRLLEFIq" name="Page-4">
    <mxGraphModel dx="1484" dy="1426" grid="1" gridSize="10" guides="1" tooltips="1" connect="1" arrows="1" fold="1" page="1" pageScale="1" pageWidth="690" pageHeight="980" math="0" shadow="0">
      <root>
        <mxCell id="0" />
        <mxCell id="1" parent="0" />
        <mxCell id="GDzzwA9rbSmFqZjl0cee-1" value="" style="edgeStyle=orthogonalEdgeStyle;rounded=0;orthogonalLoop=1;jettySize=auto;html=1;strokeColor=#E07A5F;fontColor=default;fillColor=#F2CC8F;labelBackgroundColor=none;" edge="1" parent="1" source="GDzzwA9rbSmFqZjl0cee-3" target="GDzzwA9rbSmFqZjl0cee-5">
          <mxGeometry relative="1" as="geometry" />
        </mxCell>
        <mxCell id="GDzzwA9rbSmFqZjl0cee-3" value="B" style="ellipse;whiteSpace=wrap;html=1;aspect=fixed;strokeColor=#E07A5F;fontColor=#393C56;fillColor=#F2CC8F;labelBackgroundColor=none;" vertex="1" parent="1">
          <mxGeometry x="131" y="-505" width="40" height="40" as="geometry" />
        </mxCell>
        <mxCell id="GDzzwA9rbSmFqZjl0cee-4" value="" style="edgeStyle=orthogonalEdgeStyle;rounded=0;orthogonalLoop=1;jettySize=auto;html=1;strokeColor=#E07A5F;fontColor=default;fillColor=#F2CC8F;labelBackgroundColor=none;" edge="1" parent="1" target="GDzzwA9rbSmFqZjl0cee-9">
          <mxGeometry relative="1" as="geometry">
            <mxPoint x="393" y="-465" as="sourcePoint" />
          </mxGeometry>
        </mxCell>
        <mxCell id="GDzzwA9rbSmFqZjl0cee-28" value="" style="edgeStyle=orthogonalEdgeStyle;rounded=0;orthogonalLoop=1;jettySize=auto;html=1;strokeColor=#E07A5F;fontColor=default;fillColor=#F2CC8F;labelBackgroundColor=none;" edge="1" parent="1" source="GDzzwA9rbSmFqZjl0cee-5" target="GDzzwA9rbSmFqZjl0cee-27">
          <mxGeometry relative="1" as="geometry" />
        </mxCell>
        <mxCell id="GDzzwA9rbSmFqZjl0cee-5" value="C" style="ellipse;whiteSpace=wrap;html=1;aspect=fixed;strokeColor=#E07A5F;fontColor=#393C56;fillColor=#F2CC8F;labelBackgroundColor=none;" vertex="1" parent="1">
          <mxGeometry x="251" y="-505" width="40" height="40" as="geometry" />
        </mxCell>
        <mxCell id="GDzzwA9rbSmFqZjl0cee-9" value="E" style="ellipse;shape=doubleEllipse;html=1;dashed=0;whiteSpace=wrap;aspect=fixed;strokeColor=#E07A5F;fontColor=#393C56;fillColor=#F2CC8F;labelBackgroundColor=none;" vertex="1" parent="1">
          <mxGeometry x="373" y="-420" width="40" height="40" as="geometry" />
        </mxCell>
        <mxCell id="GDzzwA9rbSmFqZjl0cee-14" value="&lt;span style=&quot;font-family: &amp;quot;Cambria Math&amp;quot;, &amp;quot;serif&amp;quot;;&quot;&gt;⋲&lt;/span&gt;" style="text;html=1;align=center;verticalAlign=middle;resizable=0;points=[];autosize=1;strokeColor=none;fillColor=none;fontColor=#393C56;labelBackgroundColor=none;" vertex="1" parent="1">
          <mxGeometry x="389" y="-462" width="30" height="30" as="geometry" />
        </mxCell>
        <mxCell id="GDzzwA9rbSmFqZjl0cee-20" value="" style="curved=1;endArrow=classic;html=1;rounded=0;strokeColor=#E07A5F;fontColor=default;fillColor=#F2CC8F;exitX=0.5;exitY=1;exitDx=0;exitDy=0;entryX=0;entryY=0.5;entryDx=0;entryDy=0;labelBackgroundColor=none;" edge="1" parent="1" target="GDzzwA9rbSmFqZjl0cee-9">
          <mxGeometry width="50" height="50" relative="1" as="geometry">
            <mxPoint x="152" y="-465" as="sourcePoint" />
            <mxPoint x="308" y="-427" as="targetPoint" />
            <Array as="points">
              <mxPoint x="273" y="-404" />
              <mxPoint x="260" y="-410" />
              <mxPoint x="320" y="-390" />
            </Array>
          </mxGeometry>
        </mxCell>
        <mxCell id="GDzzwA9rbSmFqZjl0cee-22" value="" style="endArrow=classic;html=1;rounded=0;strokeColor=#E07A5F;fontColor=default;fillColor=#F2CC8F;labelBackgroundColor=none;" edge="1" parent="1">
          <mxGeometry width="50" height="50" relative="1" as="geometry">
            <mxPoint x="100" y="-604" as="sourcePoint" />
            <mxPoint x="130" y="-604" as="targetPoint" />
          </mxGeometry>
        </mxCell>
        <mxCell id="GDzzwA9rbSmFqZjl0cee-27" value="D" style="ellipse;whiteSpace=wrap;html=1;aspect=fixed;strokeColor=#E07A5F;fontColor=#393C56;fillColor=#F2CC8F;labelBackgroundColor=none;" vertex="1" parent="1">
          <mxGeometry x="371" y="-505" width="40" height="40" as="geometry" />
        </mxCell>
        <mxCell id="lGV4y8MUb29MKrfs5aOW-17" value="" style="edgeStyle=orthogonalEdgeStyle;rounded=0;orthogonalLoop=1;jettySize=auto;html=1;strokeColor=#E07A5F;fontColor=default;fillColor=#F2CC8F;labelBackgroundColor=none;" edge="1" parent="1" source="GDzzwA9rbSmFqZjl0cee-33" target="GDzzwA9rbSmFqZjl0cee-3">
          <mxGeometry relative="1" as="geometry" />
        </mxCell>
        <mxCell id="GDzzwA9rbSmFqZjl0cee-33" value="A" style="ellipse;whiteSpace=wrap;html=1;aspect=fixed;strokeColor=#E07A5F;fontColor=#393C56;fillColor=#F2CC8F;labelBackgroundColor=none;" vertex="1" parent="1">
          <mxGeometry x="131" y="-625" width="40" height="40" as="geometry" />
        </mxCell>
        <mxCell id="GDzzwA9rbSmFqZjl0cee-38" value="" style="curved=1;endArrow=classic;html=1;rounded=0;strokeColor=#E07A5F;fontColor=default;fillColor=#F2CC8F;exitX=1;exitY=0;exitDx=0;exitDy=0;entryX=0;entryY=0;entryDx=0;entryDy=0;labelBackgroundColor=none;" edge="1" parent="1" source="GDzzwA9rbSmFqZjl0cee-5" target="GDzzwA9rbSmFqZjl0cee-27">
          <mxGeometry width="50" height="50" relative="1" as="geometry">
            <mxPoint x="303" y="-515" as="sourcePoint" />
            <mxPoint x="353" y="-565" as="targetPoint" />
            <Array as="points">
              <mxPoint x="340" y="-510" />
            </Array>
          </mxGeometry>
        </mxCell>
        <mxCell id="GDzzwA9rbSmFqZjl0cee-41" value="" style="curved=1;endArrow=classic;html=1;rounded=0;strokeColor=#E07A5F;fontColor=default;fillColor=#F2CC8F;exitX=0;exitY=1;exitDx=0;exitDy=0;entryX=1;entryY=1;entryDx=0;entryDy=0;labelBackgroundColor=none;" edge="1" parent="1" source="GDzzwA9rbSmFqZjl0cee-27" target="GDzzwA9rbSmFqZjl0cee-5">
          <mxGeometry width="50" height="50" relative="1" as="geometry">
            <mxPoint x="290" y="-446" as="sourcePoint" />
            <mxPoint x="382" y="-446" as="targetPoint" />
            <Array as="points">
              <mxPoint x="345" y="-457" />
            </Array>
          </mxGeometry>
        </mxCell>
        <mxCell id="GDzzwA9rbSmFqZjl0cee-42" value="a" style="text;html=1;align=center;verticalAlign=middle;resizable=0;points=[];autosize=1;strokeColor=none;fillColor=none;fontColor=#393C56;labelBackgroundColor=none;" vertex="1" parent="1">
          <mxGeometry x="315" y="-532" width="30" height="30" as="geometry" />
        </mxCell>
        <mxCell id="GDzzwA9rbSmFqZjl0cee-44" value="&lt;p class=&quot;MsoNormal&quot;&gt;&lt;span style=&quot;font-family:&amp;quot;Cambria Math&amp;quot;,&amp;quot;serif&amp;quot;;mso-bidi-font-family:&lt;br/&gt;&amp;quot;Cambria Math&amp;quot;&quot;&gt;⋲&lt;/span&gt;&lt;/p&gt;" style="text;html=1;align=center;verticalAlign=middle;resizable=0;points=[];autosize=1;strokeColor=none;fillColor=none;fontColor=#393C56;labelBackgroundColor=none;" vertex="1" parent="1">
          <mxGeometry x="195" y="-522" width="30" height="50" as="geometry" />
        </mxCell>
        <mxCell id="GDzzwA9rbSmFqZjl0cee-45" value="&lt;p class=&quot;MsoNormal&quot;&gt;&lt;span style=&quot;font-family:&amp;quot;Cambria Math&amp;quot;,&amp;quot;serif&amp;quot;;mso-bidi-font-family:&lt;br/&gt;&amp;quot;Cambria Math&amp;quot;&quot;&gt;⋲&lt;/span&gt;&lt;/p&gt;" style="text;html=1;align=center;verticalAlign=middle;resizable=0;points=[];autosize=1;strokeColor=none;fillColor=none;fontColor=#393C56;labelBackgroundColor=none;" vertex="1" parent="1">
          <mxGeometry x="315" y="-482" width="30" height="50" as="geometry" />
        </mxCell>
        <mxCell id="GDzzwA9rbSmFqZjl0cee-46" value="&lt;p class=&quot;MsoNormal&quot;&gt;&lt;span style=&quot;font-family:&amp;quot;Cambria Math&amp;quot;,&amp;quot;serif&amp;quot;;mso-bidi-font-family:&lt;br/&gt;&amp;quot;Cambria Math&amp;quot;&quot;&gt;⋲&lt;/span&gt;&lt;/p&gt;" style="text;html=1;align=center;verticalAlign=middle;resizable=0;points=[];autosize=1;strokeColor=none;fillColor=none;fontColor=#393C56;labelBackgroundColor=none;" vertex="1" parent="1">
          <mxGeometry x="245" y="-442" width="30" height="50" as="geometry" />
        </mxCell>
        <mxCell id="lGV4y8MUb29MKrfs5aOW-1" value="" style="shape=link;html=1;rounded=0;labelBackgroundColor=none;strokeColor=#E07A5F;fontColor=default;" edge="1" parent="1">
          <mxGeometry width="100" relative="1" as="geometry">
            <mxPoint x="325" y="-346" as="sourcePoint" />
            <mxPoint x="325" y="-218" as="targetPoint" />
          </mxGeometry>
        </mxCell>
        <mxCell id="lGV4y8MUb29MKrfs5aOW-2" value="" style="shape=link;html=1;rounded=0;labelBackgroundColor=none;strokeColor=#E07A5F;fontColor=default;" edge="1" parent="1">
          <mxGeometry width="100" relative="1" as="geometry">
            <mxPoint x="275" y="-326" as="sourcePoint" />
            <mxPoint x="465" y="-326" as="targetPoint" />
          </mxGeometry>
        </mxCell>
        <mxCell id="lGV4y8MUb29MKrfs5aOW-3" value="a" style="text;html=1;align=center;verticalAlign=middle;resizable=0;points=[];autosize=1;strokeColor=none;fillColor=none;labelBackgroundColor=none;fontColor=#393C56;" vertex="1" parent="1">
          <mxGeometry x="330" y="-358" width="30" height="30" as="geometry" />
        </mxCell>
        <mxCell id="lGV4y8MUb29MKrfs5aOW-4" value="b" style="text;html=1;align=center;verticalAlign=middle;resizable=0;points=[];autosize=1;strokeColor=none;fillColor=none;labelBackgroundColor=none;fontColor=#393C56;" vertex="1" parent="1">
          <mxGeometry x="420" y="-358" width="30" height="30" as="geometry" />
        </mxCell>
        <mxCell id="lGV4y8MUb29MKrfs5aOW-5" value="A" style="text;html=1;align=center;verticalAlign=middle;resizable=0;points=[];autosize=1;strokeColor=none;fillColor=none;labelBackgroundColor=none;fontColor=#393C56;" vertex="1" parent="1">
          <mxGeometry x="280" y="-318" width="30" height="30" as="geometry" />
        </mxCell>
        <mxCell id="lGV4y8MUb29MKrfs5aOW-6" value="BCE" style="text;html=1;align=center;verticalAlign=middle;resizable=0;points=[];autosize=1;strokeColor=none;fillColor=none;labelBackgroundColor=none;fontColor=#393C56;" vertex="1" parent="1">
          <mxGeometry x="270" y="-288" width="50" height="30" as="geometry" />
        </mxCell>
        <mxCell id="lGV4y8MUb29MKrfs5aOW-7" value="BCE" style="text;html=1;align=center;verticalAlign=middle;resizable=0;points=[];autosize=1;strokeColor=none;fillColor=none;labelBackgroundColor=none;fontColor=#393C56;" vertex="1" parent="1">
          <mxGeometry x="320" y="-318" width="50" height="30" as="geometry" />
        </mxCell>
        <mxCell id="lGV4y8MUb29MKrfs5aOW-8" value="-" style="text;html=1;align=center;verticalAlign=middle;resizable=0;points=[];autosize=1;strokeColor=none;fillColor=none;labelBackgroundColor=none;fontColor=#393C56;" vertex="1" parent="1">
          <mxGeometry x="419" y="-318" width="30" height="30" as="geometry" />
        </mxCell>
        <mxCell id="lGV4y8MUb29MKrfs5aOW-9" value="CDE" style="text;html=1;align=center;verticalAlign=middle;resizable=0;points=[];autosize=1;strokeColor=none;fillColor=none;labelBackgroundColor=none;fontColor=#393C56;" vertex="1" parent="1">
          <mxGeometry x="320" y="-288" width="50" height="30" as="geometry" />
        </mxCell>
        <mxCell id="lGV4y8MUb29MKrfs5aOW-10" value="CDE" style="text;html=1;align=center;verticalAlign=middle;resizable=0;points=[];autosize=1;strokeColor=none;fillColor=none;labelBackgroundColor=none;fontColor=#393C56;" vertex="1" parent="1">
          <mxGeometry x="410" y="-288" width="50" height="30" as="geometry" />
        </mxCell>
        <mxCell id="lGV4y8MUb29MKrfs5aOW-11" value="CDE" style="text;html=1;align=center;verticalAlign=middle;resizable=0;points=[];autosize=1;strokeColor=none;fillColor=none;labelBackgroundColor=none;fontColor=#393C56;" vertex="1" parent="1">
          <mxGeometry x="320" y="-258" width="50" height="30" as="geometry" />
        </mxCell>
        <mxCell id="lGV4y8MUb29MKrfs5aOW-12" value="CDE" style="text;html=1;align=center;verticalAlign=middle;resizable=0;points=[];autosize=1;strokeColor=none;fillColor=none;labelBackgroundColor=none;fontColor=#393C56;" vertex="1" parent="1">
          <mxGeometry x="410" y="-258" width="50" height="30" as="geometry" />
        </mxCell>
        <mxCell id="lGV4y8MUb29MKrfs5aOW-13" value="CDE" style="text;html=1;align=center;verticalAlign=middle;resizable=0;points=[];autosize=1;strokeColor=none;fillColor=none;fontColor=#393C56;labelBackgroundColor=none;" vertex="1" parent="1">
          <mxGeometry x="270" y="-258" width="50" height="30" as="geometry" />
        </mxCell>
        <mxCell id="lGV4y8MUb29MKrfs5aOW-14" value="b" style="text;html=1;align=center;verticalAlign=middle;resizable=0;points=[];autosize=1;strokeColor=none;fillColor=none;fontColor=#393C56;labelBackgroundColor=none;" vertex="1" parent="1">
          <mxGeometry x="315" y="-502" width="30" height="30" as="geometry" />
        </mxCell>
        <mxCell id="lGV4y8MUb29MKrfs5aOW-18" value="a" style="text;html=1;align=center;verticalAlign=middle;resizable=0;points=[];autosize=1;strokeColor=none;fillColor=none;fontColor=#393C56;labelBackgroundColor=none;" vertex="1" parent="1">
          <mxGeometry x="145" y="-562" width="30" height="30" as="geometry" />
        </mxCell>
        <mxCell id="lGV4y8MUb29MKrfs5aOW-19" value="a&lt;span style=&quot;font-family: &amp;quot;Cambria Math&amp;quot;, &amp;quot;serif&amp;quot;;&quot;&gt;⋲=a&lt;/span&gt;&lt;div&gt;&lt;span style=&quot;font-family: &amp;quot;Cambria Math&amp;quot;, &amp;quot;serif&amp;quot;;&quot;&gt;⋲a=a&lt;/span&gt;&lt;span style=&quot;font-family: &amp;quot;Cambria Math&amp;quot;, &amp;quot;serif&amp;quot;;&quot;&gt;&lt;br&gt;&lt;/span&gt;&lt;/div&gt;&lt;div&gt;&lt;span style=&quot;font-family: &amp;quot;Cambria Math&amp;quot;, &amp;quot;serif&amp;quot;;&quot;&gt;aaaa&lt;/span&gt;&lt;span style=&quot;font-family: &amp;quot;Cambria Math&amp;quot;, &amp;quot;serif&amp;quot;; background-color: initial;&quot;&gt;⋲&lt;/span&gt;&lt;span style=&quot;font-family: &amp;quot;Cambria Math&amp;quot;, &amp;quot;serif&amp;quot;; background-color: initial;&quot;&gt;⋲&lt;/span&gt;&lt;span style=&quot;font-family: &amp;quot;Cambria Math&amp;quot;, &amp;quot;serif&amp;quot;; background-color: initial;&quot;&gt;⋲aa=a&lt;sup&gt;5&lt;/sup&gt;&lt;/span&gt;&lt;/div&gt;" style="text;html=1;align=center;verticalAlign=middle;resizable=0;points=[];autosize=1;strokeColor=none;fillColor=none;fontColor=#393C56;labelBackgroundColor=none;" vertex="1" parent="1">
          <mxGeometry x="-5" y="-267" width="110" height="60" as="geometry" />
        </mxCell>
        <mxCell id="4EcJbjr3OQqmkGS--Jr3-1" value="" style="edgeStyle=orthogonalEdgeStyle;rounded=0;orthogonalLoop=1;jettySize=auto;html=1;strokeColor=#E07A5F;fontColor=default;fillColor=#F2CC8F;labelBackgroundColor=none;" edge="1" parent="1" source="4EcJbjr3OQqmkGS--Jr3-2">
          <mxGeometry relative="1" as="geometry">
            <mxPoint x="288" y="-103" as="targetPoint" />
          </mxGeometry>
        </mxCell>
        <mxCell id="4EcJbjr3OQqmkGS--Jr3-2" value="A" style="ellipse;whiteSpace=wrap;html=1;aspect=fixed;strokeColor=#E07A5F;fontColor=#393C56;fillColor=#F2CC8F;labelBackgroundColor=none;" vertex="1" parent="1">
          <mxGeometry x="168" y="-123" width="40" height="40" as="geometry" />
        </mxCell>
        <mxCell id="4EcJbjr3OQqmkGS--Jr3-3" value="" style="edgeStyle=orthogonalEdgeStyle;rounded=0;orthogonalLoop=1;jettySize=auto;html=1;strokeColor=#E07A5F;fontColor=default;fillColor=#F2CC8F;labelBackgroundColor=none;" edge="1" parent="1">
          <mxGeometry relative="1" as="geometry">
            <mxPoint x="408" y="-103" as="targetPoint" />
            <mxPoint x="328" y="-103" as="sourcePoint" />
          </mxGeometry>
        </mxCell>
        <mxCell id="4EcJbjr3OQqmkGS--Jr3-5" value="" style="endArrow=classic;html=1;rounded=0;strokeColor=#E07A5F;fontColor=default;fillColor=#F2CC8F;labelBackgroundColor=none;" edge="1" parent="1">
          <mxGeometry width="50" height="50" relative="1" as="geometry">
            <mxPoint x="137" y="-104" as="sourcePoint" />
            <mxPoint x="167" y="-104" as="targetPoint" />
          </mxGeometry>
        </mxCell>
        <mxCell id="4EcJbjr3OQqmkGS--Jr3-6" value="" style="curved=1;endArrow=classic;html=1;rounded=0;strokeColor=#E07A5F;fontColor=default;fillColor=#F2CC8F;exitX=1;exitY=0.5;exitDx=0;exitDy=0;labelBackgroundColor=none;" edge="1" parent="1">
          <mxGeometry width="50" height="50" relative="1" as="geometry">
            <mxPoint x="448" y="-103" as="sourcePoint" />
            <mxPoint x="431" y="-122" as="targetPoint" />
            <Array as="points">
              <mxPoint x="491" y="-102" />
              <mxPoint x="441" y="-152" />
            </Array>
          </mxGeometry>
        </mxCell>
        <mxCell id="4EcJbjr3OQqmkGS--Jr3-7" value="a,b" style="text;html=1;align=center;verticalAlign=middle;resizable=0;points=[];autosize=1;strokeColor=none;fillColor=none;fontColor=#393C56;labelBackgroundColor=none;" vertex="1" parent="1">
          <mxGeometry x="456" y="-154" width="40" height="30" as="geometry" />
        </mxCell>
        <mxCell id="4EcJbjr3OQqmkGS--Jr3-8" value="CD&lt;b&gt;E&lt;/b&gt;" style="ellipse;shape=doubleEllipse;html=1;dashed=0;whiteSpace=wrap;aspect=fixed;strokeColor=#E07A5F;fontColor=#393C56;fillColor=#F2CC8F;labelBackgroundColor=none;" vertex="1" parent="1">
          <mxGeometry x="406" y="-123" width="40" height="40" as="geometry" />
        </mxCell>
        <mxCell id="4EcJbjr3OQqmkGS--Jr3-11" value="a" style="text;html=1;align=center;verticalAlign=middle;resizable=0;points=[];autosize=1;strokeColor=none;fillColor=none;fontColor=#393C56;labelBackgroundColor=none;" vertex="1" parent="1">
          <mxGeometry x="232" y="-134" width="30" height="30" as="geometry" />
        </mxCell>
        <mxCell id="4EcJbjr3OQqmkGS--Jr3-12" value="a,b" style="text;html=1;align=center;verticalAlign=middle;resizable=0;points=[];autosize=1;strokeColor=none;fillColor=none;fontColor=#393C56;labelBackgroundColor=none;" vertex="1" parent="1">
          <mxGeometry x="356" y="-124" width="40" height="30" as="geometry" />
        </mxCell>
        <mxCell id="4EcJbjr3OQqmkGS--Jr3-15" value="BC&lt;b&gt;E&lt;/b&gt;" style="ellipse;shape=doubleEllipse;html=1;dashed=0;whiteSpace=wrap;aspect=fixed;strokeColor=#E07A5F;fontColor=#393C56;fillColor=#F2CC8F;labelBackgroundColor=none;" vertex="1" parent="1">
          <mxGeometry x="289" y="-120" width="40" height="40" as="geometry" />
        </mxCell>
      </root>
    </mxGraphModel>
  </diagram>
  <diagram id="xsARAZK9HMRhAy7j-vy1" name="Page-5">
    <mxGraphModel dx="794" dy="1426" grid="1" gridSize="10" guides="1" tooltips="1" connect="1" arrows="1" fold="1" page="1" pageScale="1" pageWidth="690" pageHeight="980" math="0" shadow="0">
      <root>
        <mxCell id="0" />
        <mxCell id="1" parent="0" />
        <mxCell id="YVpY37piSQkoXIcaMdA5-1" value="" style="edgeStyle=orthogonalEdgeStyle;rounded=0;orthogonalLoop=1;jettySize=auto;html=1;fontColor=default;labelBackgroundColor=none;strokeColor=#A8201A;" parent="1" source="YVpY37piSQkoXIcaMdA5-2" edge="1">
          <mxGeometry relative="1" as="geometry">
            <mxPoint x="251.0000000000001" y="-485" as="targetPoint" />
          </mxGeometry>
        </mxCell>
        <mxCell id="YVpY37piSQkoXIcaMdA5-23" value="" style="edgeStyle=orthogonalEdgeStyle;rounded=0;orthogonalLoop=1;jettySize=auto;html=1;fontColor=default;labelBackgroundColor=none;strokeColor=#A8201A;" parent="1" source="YVpY37piSQkoXIcaMdA5-2" target="YVpY37piSQkoXIcaMdA5-12" edge="1">
          <mxGeometry relative="1" as="geometry" />
        </mxCell>
        <mxCell id="YVpY37piSQkoXIcaMdA5-2" value="A" style="ellipse;whiteSpace=wrap;html=1;aspect=fixed;labelBackgroundColor=none;fillColor=#FAE5C7;strokeColor=#0F8B8D;fontColor=#143642;" parent="1" vertex="1">
          <mxGeometry x="131" y="-505" width="40" height="40" as="geometry" />
        </mxCell>
        <mxCell id="YVpY37piSQkoXIcaMdA5-6" value="D" style="ellipse;shape=doubleEllipse;html=1;dashed=0;whiteSpace=wrap;aspect=fixed;labelBackgroundColor=none;fillColor=#FAE5C7;strokeColor=#0F8B8D;fontColor=#143642;" parent="1" vertex="1">
          <mxGeometry x="373" y="-504" width="40" height="40" as="geometry" />
        </mxCell>
        <mxCell id="YVpY37piSQkoXIcaMdA5-9" value="" style="endArrow=classic;html=1;rounded=0;fontColor=default;labelBackgroundColor=none;strokeColor=#A8201A;" parent="1" edge="1">
          <mxGeometry width="50" height="50" relative="1" as="geometry">
            <mxPoint x="100" y="-485" as="sourcePoint" />
            <mxPoint x="130" y="-485" as="targetPoint" />
          </mxGeometry>
        </mxCell>
        <mxCell id="YVpY37piSQkoXIcaMdA5-12" value="C" style="ellipse;whiteSpace=wrap;html=1;aspect=fixed;labelBackgroundColor=none;fillColor=#FAE5C7;strokeColor=#0F8B8D;fontColor=#143642;" parent="1" vertex="1">
          <mxGeometry x="131" y="-625" width="40" height="40" as="geometry" />
        </mxCell>
        <mxCell id="YVpY37piSQkoXIcaMdA5-13" value="" style="curved=1;endArrow=classic;html=1;rounded=0;fontColor=default;exitX=1;exitY=0;exitDx=0;exitDy=0;entryX=0;entryY=0;entryDx=0;entryDy=0;labelBackgroundColor=none;strokeColor=#A8201A;" parent="1" edge="1">
          <mxGeometry width="50" height="50" relative="1" as="geometry">
            <mxPoint x="285.14213562372606" y="-499.14213562372606" as="sourcePoint" />
            <mxPoint x="376.85786437626894" y="-499.14213562373106" as="targetPoint" />
            <Array as="points">
              <mxPoint x="340" y="-510" />
            </Array>
          </mxGeometry>
        </mxCell>
        <mxCell id="YVpY37piSQkoXIcaMdA5-14" value="" style="curved=1;endArrow=classic;html=1;rounded=0;fontColor=default;exitX=1;exitY=1;exitDx=0;exitDy=0;entryX=0;entryY=1;entryDx=0;entryDy=0;labelBackgroundColor=none;strokeColor=#A8201A;" parent="1" edge="1">
          <mxGeometry width="50" height="50" relative="1" as="geometry">
            <mxPoint x="285.14213562372606" y="-470.85786437627405" as="sourcePoint" />
            <mxPoint x="376.85786437626894" y="-470.85786437626894" as="targetPoint" />
            <Array as="points">
              <mxPoint x="345" y="-457" />
            </Array>
          </mxGeometry>
        </mxCell>
        <mxCell id="YVpY37piSQkoXIcaMdA5-15" value="b" style="text;html=1;align=center;verticalAlign=middle;resizable=0;points=[];autosize=1;labelBackgroundColor=none;fontColor=#143642;" parent="1" vertex="1">
          <mxGeometry x="315" y="-532" width="30" height="30" as="geometry" />
        </mxCell>
        <mxCell id="YVpY37piSQkoXIcaMdA5-26" value="a" style="text;html=1;align=center;verticalAlign=middle;resizable=0;points=[];autosize=1;labelBackgroundColor=none;fontColor=#143642;" parent="1" vertex="1">
          <mxGeometry x="315" y="-472" width="30" height="30" as="geometry" />
        </mxCell>
        <mxCell id="sqN3QQwQu0-r5pGA6lWO-1" value="" style="curved=1;endArrow=classic;html=1;rounded=0;fontColor=default;exitX=1;exitY=0.5;exitDx=0;exitDy=0;labelBackgroundColor=none;strokeColor=#A8201A;" parent="1" edge="1">
          <mxGeometry width="50" height="50" relative="1" as="geometry">
            <mxPoint x="409" y="-488" as="sourcePoint" />
            <mxPoint x="392" y="-507" as="targetPoint" />
            <Array as="points">
              <mxPoint x="452" y="-487" />
              <mxPoint x="402" y="-537" />
            </Array>
          </mxGeometry>
        </mxCell>
        <mxCell id="sqN3QQwQu0-r5pGA6lWO-3" value="a,b" style="text;html=1;align=center;verticalAlign=middle;resizable=0;points=[];autosize=1;labelBackgroundColor=none;fontColor=#143642;" parent="1" vertex="1">
          <mxGeometry x="430" y="-535" width="40" height="30" as="geometry" />
        </mxCell>
        <mxCell id="sqN3QQwQu0-r5pGA6lWO-4" value="" style="curved=1;endArrow=classic;html=1;rounded=0;fontColor=default;exitX=1;exitY=0.5;exitDx=0;exitDy=0;labelBackgroundColor=none;strokeColor=#A8201A;" parent="1" edge="1">
          <mxGeometry width="50" height="50" relative="1" as="geometry">
            <mxPoint x="173" y="-603" as="sourcePoint" />
            <mxPoint x="156" y="-622" as="targetPoint" />
            <Array as="points">
              <mxPoint x="216" y="-602" />
              <mxPoint x="166" y="-652" />
            </Array>
          </mxGeometry>
        </mxCell>
        <mxCell id="sqN3QQwQu0-r5pGA6lWO-6" value="a" style="text;html=1;align=center;verticalAlign=middle;resizable=0;points=[];autosize=1;labelBackgroundColor=none;fontColor=#143642;" parent="1" vertex="1">
          <mxGeometry x="195" y="-512" width="30" height="30" as="geometry" />
        </mxCell>
        <mxCell id="sqN3QQwQu0-r5pGA6lWO-7" value="a,b" style="text;html=1;align=center;verticalAlign=middle;resizable=0;points=[];autosize=1;labelBackgroundColor=none;fontColor=#143642;" parent="1" vertex="1">
          <mxGeometry x="200" y="-647" width="40" height="30" as="geometry" />
        </mxCell>
        <mxCell id="sqN3QQwQu0-r5pGA6lWO-8" value="b" style="text;html=1;align=center;verticalAlign=middle;resizable=0;points=[];autosize=1;labelBackgroundColor=none;fontColor=#143642;" parent="1" vertex="1">
          <mxGeometry x="145" y="-562" width="30" height="30" as="geometry" />
        </mxCell>
        <mxCell id="Ob37HYpf-7QhIJ95r-hT-17" value="B" style="ellipse;shape=doubleEllipse;html=1;dashed=0;whiteSpace=wrap;aspect=fixed;labelBackgroundColor=none;fillColor=#FAE5C7;strokeColor=#0F8B8D;fontColor=#143642;" parent="1" vertex="1">
          <mxGeometry x="250" y="-505" width="40" height="40" as="geometry" />
        </mxCell>
        <mxCell id="Ob37HYpf-7QhIJ95r-hT-37" value="" style="endArrow=none;html=1;rounded=0;fontColor=default;labelBackgroundColor=none;strokeColor=#A8201A;" parent="1" edge="1">
          <mxGeometry width="50" height="50" relative="1" as="geometry">
            <mxPoint x="320" y="-80" as="sourcePoint" />
            <mxPoint x="320" y="-280" as="targetPoint" />
          </mxGeometry>
        </mxCell>
        <mxCell id="Ob37HYpf-7QhIJ95r-hT-38" value="" style="endArrow=none;html=1;rounded=0;fontColor=default;labelBackgroundColor=none;strokeColor=#A8201A;" parent="1" edge="1">
          <mxGeometry width="50" height="50" relative="1" as="geometry">
            <mxPoint x="358" y="-80" as="sourcePoint" />
            <mxPoint x="358" y="-277" as="targetPoint" />
          </mxGeometry>
        </mxCell>
        <mxCell id="Ob37HYpf-7QhIJ95r-hT-39" value="" style="endArrow=none;html=1;rounded=0;fontColor=default;labelBackgroundColor=none;strokeColor=#A8201A;" parent="1" edge="1">
          <mxGeometry width="50" height="50" relative="1" as="geometry">
            <mxPoint x="397" y="-80" as="sourcePoint" />
            <mxPoint x="397" y="-278" as="targetPoint" />
          </mxGeometry>
        </mxCell>
        <mxCell id="Ob37HYpf-7QhIJ95r-hT-40" value="" style="endArrow=none;html=1;rounded=0;fontColor=default;labelBackgroundColor=none;strokeColor=#A8201A;" parent="1" edge="1">
          <mxGeometry width="50" height="50" relative="1" as="geometry">
            <mxPoint x="440" y="-90" as="sourcePoint" />
            <mxPoint x="437" y="-279" as="targetPoint" />
          </mxGeometry>
        </mxCell>
        <mxCell id="Ob37HYpf-7QhIJ95r-hT-42" value="" style="endArrow=none;dashed=1;html=1;rounded=0;labelBackgroundColor=none;fontColor=default;strokeColor=#A8201A;" parent="1" edge="1">
          <mxGeometry width="50" height="50" relative="1" as="geometry">
            <mxPoint x="270" y="-242" as="sourcePoint" />
            <mxPoint x="480" y="-244" as="targetPoint" />
          </mxGeometry>
        </mxCell>
        <mxCell id="Ob37HYpf-7QhIJ95r-hT-43" value="" style="endArrow=none;dashed=1;html=1;rounded=0;labelBackgroundColor=none;fontColor=default;strokeColor=#A8201A;" parent="1" edge="1">
          <mxGeometry width="50" height="50" relative="1" as="geometry">
            <mxPoint x="274" y="-200" as="sourcePoint" />
            <mxPoint x="484" y="-202" as="targetPoint" />
          </mxGeometry>
        </mxCell>
        <mxCell id="Ob37HYpf-7QhIJ95r-hT-44" value="" style="endArrow=none;dashed=1;html=1;rounded=0;labelBackgroundColor=none;fontColor=default;strokeColor=#A8201A;" parent="1" edge="1">
          <mxGeometry width="50" height="50" relative="1" as="geometry">
            <mxPoint x="284" y="-163" as="sourcePoint" />
            <mxPoint x="494" y="-165" as="targetPoint" />
          </mxGeometry>
        </mxCell>
        <mxCell id="Ob37HYpf-7QhIJ95r-hT-46" value="&lt;font style=&quot;background-color: rgb(255, 255, 255);&quot; color=&quot;#000000&quot;&gt;A&lt;/font&gt;" style="text;html=1;align=center;verticalAlign=middle;resizable=0;points=[];autosize=1;strokeColor=none;fillColor=none;labelBackgroundColor=none;fontColor=#143642;" parent="1" vertex="1">
          <mxGeometry x="315" y="-272" width="30" height="30" as="geometry" />
        </mxCell>
        <mxCell id="Ob37HYpf-7QhIJ95r-hT-47" value="&lt;font color=&quot;#000000&quot;&gt;B&lt;/font&gt;" style="text;html=1;align=center;verticalAlign=middle;resizable=0;points=[];autosize=1;strokeColor=none;fillColor=none;labelBackgroundColor=none;fontColor=#143642;" parent="1" vertex="1">
          <mxGeometry x="365" y="-272" width="30" height="30" as="geometry" />
        </mxCell>
        <mxCell id="Ob37HYpf-7QhIJ95r-hT-48" value="D" style="text;html=1;align=center;verticalAlign=middle;resizable=0;points=[];autosize=1;strokeColor=none;fillColor=none;labelBackgroundColor=none;fontColor=#143642;" parent="1" vertex="1">
          <mxGeometry x="405" y="-272" width="30" height="30" as="geometry" />
        </mxCell>
        <mxCell id="Ob37HYpf-7QhIJ95r-hT-50" value="Initialisation" style="text;html=1;align=center;verticalAlign=middle;resizable=0;points=[];autosize=1;strokeColor=none;fillColor=none;labelBackgroundColor=none;fontColor=#143642;" parent="1" vertex="1">
          <mxGeometry x="235" y="-242" width="90" height="30" as="geometry" />
        </mxCell>
        <mxCell id="Ob37HYpf-7QhIJ95r-hT-51" value="I" style="text;html=1;align=center;verticalAlign=middle;resizable=0;points=[];autosize=1;strokeColor=none;fillColor=none;labelBackgroundColor=none;fontColor=#143642;" parent="1" vertex="1">
          <mxGeometry x="325" y="-242" width="30" height="30" as="geometry" />
        </mxCell>
        <mxCell id="Ob37HYpf-7QhIJ95r-hT-53" value="II" style="text;html=1;align=center;verticalAlign=middle;resizable=0;points=[];autosize=1;strokeColor=none;fillColor=none;labelBackgroundColor=none;fontColor=#143642;" parent="1" vertex="1">
          <mxGeometry x="365" y="-242" width="30" height="30" as="geometry" />
        </mxCell>
        <mxCell id="Ob37HYpf-7QhIJ95r-hT-54" value="a" style="text;html=1;align=center;verticalAlign=middle;resizable=0;points=[];autosize=1;strokeColor=none;fillColor=none;labelBackgroundColor=none;fontColor=#143642;" parent="1" vertex="1">
          <mxGeometry x="275" y="-202" width="30" height="30" as="geometry" />
        </mxCell>
        <mxCell id="Ob37HYpf-7QhIJ95r-hT-55" value="b" style="text;html=1;align=center;verticalAlign=middle;resizable=0;points=[];autosize=1;strokeColor=none;fillColor=none;labelBackgroundColor=none;fontColor=#143642;" parent="1" vertex="1">
          <mxGeometry x="275" y="-162" width="30" height="30" as="geometry" />
        </mxCell>
        <mxCell id="Ob37HYpf-7QhIJ95r-hT-56" value="" style="endArrow=none;dashed=1;html=1;rounded=0;labelBackgroundColor=none;fontColor=default;strokeColor=#A8201A;" parent="1" edge="1">
          <mxGeometry width="50" height="50" relative="1" as="geometry">
            <mxPoint x="281" y="-83" as="sourcePoint" />
            <mxPoint x="491" y="-85" as="targetPoint" />
          </mxGeometry>
        </mxCell>
        <mxCell id="Ob37HYpf-7QhIJ95r-hT-57" value="Bilan" style="text;html=1;align=center;verticalAlign=middle;resizable=0;points=[];autosize=1;strokeColor=none;fillColor=none;labelBackgroundColor=none;fontColor=#143642;" parent="1" vertex="1">
          <mxGeometry x="275" y="-112" width="50" height="30" as="geometry" />
        </mxCell>
        <mxCell id="Ob37HYpf-7QhIJ95r-hT-58" value="II" style="text;html=1;align=center;verticalAlign=middle;resizable=0;points=[];autosize=1;strokeColor=none;fillColor=none;labelBackgroundColor=none;fontColor=#143642;" parent="1" vertex="1">
          <mxGeometry x="325" y="-197" width="30" height="30" as="geometry" />
        </mxCell>
        <mxCell id="Ob37HYpf-7QhIJ95r-hT-59" value="II" style="text;html=1;align=center;verticalAlign=middle;resizable=0;points=[];autosize=1;strokeColor=none;fillColor=none;labelBackgroundColor=none;fontColor=#143642;" parent="1" vertex="1">
          <mxGeometry x="365" y="-197" width="30" height="30" as="geometry" />
        </mxCell>
        <mxCell id="Ob37HYpf-7QhIJ95r-hT-60" value="II" style="text;html=1;align=center;verticalAlign=middle;resizable=0;points=[];autosize=1;strokeColor=none;fillColor=none;labelBackgroundColor=none;fontColor=#143642;" parent="1" vertex="1">
          <mxGeometry x="405" y="-197" width="30" height="30" as="geometry" />
        </mxCell>
        <mxCell id="Ob37HYpf-7QhIJ95r-hT-61" value="_" style="text;html=1;align=center;verticalAlign=middle;resizable=0;points=[];autosize=1;strokeColor=none;fillColor=none;labelBackgroundColor=none;fontColor=#143642;" parent="1" vertex="1">
          <mxGeometry x="325" y="-152" width="30" height="30" as="geometry" />
        </mxCell>
        <mxCell id="Ob37HYpf-7QhIJ95r-hT-62" value="II" style="text;html=1;align=center;verticalAlign=middle;resizable=0;points=[];autosize=1;strokeColor=none;fillColor=none;labelBackgroundColor=none;fontColor=#143642;" parent="1" vertex="1">
          <mxGeometry x="405" y="-152" width="30" height="30" as="geometry" />
        </mxCell>
        <mxCell id="Ob37HYpf-7QhIJ95r-hT-66" value="II" style="text;html=1;align=center;verticalAlign=middle;resizable=0;points=[];autosize=1;strokeColor=none;fillColor=none;labelBackgroundColor=none;fontColor=#143642;" parent="1" vertex="1">
          <mxGeometry x="365" y="-152" width="30" height="30" as="geometry" />
        </mxCell>
        <mxCell id="Ob37HYpf-7QhIJ95r-hT-67" value="" style="endArrow=none;dashed=1;html=1;rounded=0;labelBackgroundColor=none;fontColor=default;strokeColor=#A8201A;" parent="1" edge="1">
          <mxGeometry width="50" height="50" relative="1" as="geometry">
            <mxPoint x="285" y="-123" as="sourcePoint" />
            <mxPoint x="495" y="-125" as="targetPoint" />
          </mxGeometry>
        </mxCell>
        <mxCell id="Ob37HYpf-7QhIJ95r-hT-68" value="I" style="text;html=1;align=center;verticalAlign=middle;resizable=0;points=[];autosize=1;strokeColor=none;fillColor=none;labelBackgroundColor=none;fontColor=#143642;" parent="1" vertex="1">
          <mxGeometry x="325" y="-112" width="30" height="30" as="geometry" />
        </mxCell>
        <mxCell id="Ob37HYpf-7QhIJ95r-hT-69" value="II" style="text;html=1;align=center;verticalAlign=middle;resizable=0;points=[];autosize=1;strokeColor=none;fillColor=none;labelBackgroundColor=none;fontColor=#143642;" parent="1" vertex="1">
          <mxGeometry x="409" y="-116" width="30" height="30" as="geometry" />
        </mxCell>
        <mxCell id="Ob37HYpf-7QhIJ95r-hT-70" value="II" style="text;html=1;align=center;verticalAlign=middle;resizable=0;points=[];autosize=1;strokeColor=none;fillColor=none;labelBackgroundColor=none;fontColor=#143642;" parent="1" vertex="1">
          <mxGeometry x="365" y="-116" width="30" height="30" as="geometry" />
        </mxCell>
        <mxCell id="Ob37HYpf-7QhIJ95r-hT-72" value="II" style="text;html=1;align=center;verticalAlign=middle;resizable=0;points=[];autosize=1;strokeColor=none;fillColor=none;labelBackgroundColor=none;fontColor=#143642;" parent="1" vertex="1">
          <mxGeometry x="405" y="-242" width="30" height="30" as="geometry" />
        </mxCell>
      </root>
    </mxGraphModel>
  </diagram>
  <diagram id="LsCe1bS8rOGQpOY_4NVS" name="Page-6">
    <mxGraphModel dx="794" dy="446" grid="1" gridSize="10" guides="1" tooltips="1" connect="1" arrows="1" fold="1" page="1" pageScale="1" pageWidth="690" pageHeight="980" math="0" shadow="0">
      <root>
        <mxCell id="0" />
        <mxCell id="1" parent="0" />
        <mxCell id="na5C6rlryGqaeeoqm-5C-1" value="A" style="ellipse;whiteSpace=wrap;html=1;aspect=fixed;fillColor=#09555B;fontColor=#EEEEEE;strokeColor=#BAC8D3;labelBackgroundColor=none;" vertex="1" parent="1">
          <mxGeometry x="190" y="198" width="60" height="60" as="geometry" />
        </mxCell>
        <mxCell id="na5C6rlryGqaeeoqm-5C-4" value="D" style="ellipse;whiteSpace=wrap;html=1;aspect=fixed;fillColor=#09555B;fontColor=#EEEEEE;strokeColor=#BAC8D3;labelBackgroundColor=none;" vertex="1" parent="1">
          <mxGeometry x="600" y="153" width="60" height="60" as="geometry" />
        </mxCell>
        <mxCell id="na5C6rlryGqaeeoqm-5C-6" value="C" style="ellipse;whiteSpace=wrap;html=1;aspect=fixed;fillColor=#09555B;fontColor=#EEEEEE;strokeColor=#BAC8D3;labelBackgroundColor=none;" vertex="1" parent="1">
          <mxGeometry x="440" y="330" width="60" height="60" as="geometry" />
        </mxCell>
        <mxCell id="na5C6rlryGqaeeoqm-5C-9" value="" style="endArrow=classic;html=1;rounded=0;entryX=0.5;entryY=0;entryDx=0;entryDy=0;shape=link;exitX=1;exitY=0.5;exitDx=0;exitDy=0;strokeColor=#0B4D6A;labelBackgroundColor=none;fontColor=default;" edge="1" parent="1" source="na5C6rlryGqaeeoqm-5C-1" target="na5C6rlryGqaeeoqm-5C-6">
          <mxGeometry width="50" height="50" relative="1" as="geometry">
            <mxPoint x="240" y="260" as="sourcePoint" />
            <mxPoint x="290" y="210" as="targetPoint" />
          </mxGeometry>
        </mxCell>
        <mxCell id="na5C6rlryGqaeeoqm-5C-10" value="" style="endArrow=classic;html=1;rounded=0;entryX=-0.033;entryY=0.617;entryDx=0;entryDy=0;entryPerimeter=0;shape=link;strokeColor=#0B4D6A;labelBackgroundColor=none;fontColor=default;" edge="1" parent="1" target="na5C6rlryGqaeeoqm-5C-4">
          <mxGeometry width="50" height="50" relative="1" as="geometry">
            <mxPoint x="250" y="230" as="sourcePoint" />
            <mxPoint x="466.03999999999996" y="266" as="targetPoint" />
          </mxGeometry>
        </mxCell>
        <mxCell id="na5C6rlryGqaeeoqm-5C-11" value="" style="endArrow=classic;html=1;rounded=0;shape=link;exitX=1;exitY=0.5;exitDx=0;exitDy=0;strokeColor=#0B4D6A;labelBackgroundColor=none;fontColor=default;" edge="1" parent="1" source="na5C6rlryGqaeeoqm-5C-2">
          <mxGeometry width="50" height="50" relative="1" as="geometry">
            <mxPoint x="370" y="180" as="sourcePoint" />
            <mxPoint x="600" y="190" as="targetPoint" />
          </mxGeometry>
        </mxCell>
        <mxCell id="na5C6rlryGqaeeoqm-5C-12" value="" style="endArrow=classic;html=1;rounded=0;exitX=0.5;exitY=0;exitDx=0;exitDy=0;shape=link;entryX=-0.033;entryY=0.628;entryDx=0;entryDy=0;entryPerimeter=0;strokeColor=#0B4D6A;labelBackgroundColor=none;fontColor=default;" edge="1" parent="1" source="na5C6rlryGqaeeoqm-5C-6" target="na5C6rlryGqaeeoqm-5C-4">
          <mxGeometry width="50" height="50" relative="1" as="geometry">
            <mxPoint x="320" y="260" as="sourcePoint" />
            <mxPoint x="600" y="170" as="targetPoint" />
          </mxGeometry>
        </mxCell>
        <mxCell id="na5C6rlryGqaeeoqm-5C-13" value="1" style="text;html=1;align=center;verticalAlign=middle;resizable=0;points=[];autosize=1;strokeColor=none;fillColor=none;labelBackgroundColor=none;fontColor=#EEEEEE;" vertex="1" parent="1">
          <mxGeometry x="305" y="148" width="30" height="30" as="geometry" />
        </mxCell>
        <mxCell id="na5C6rlryGqaeeoqm-5C-15" value="" style="endArrow=classic;html=1;rounded=0;shape=link;strokeColor=#0B4D6A;labelBackgroundColor=none;fontColor=default;" edge="1" parent="1" target="na5C6rlryGqaeeoqm-5C-2">
          <mxGeometry width="50" height="50" relative="1" as="geometry">
            <mxPoint x="250" y="230" as="sourcePoint" />
            <mxPoint x="395" y="140" as="targetPoint" />
          </mxGeometry>
        </mxCell>
        <mxCell id="na5C6rlryGqaeeoqm-5C-2" value="B" style="ellipse;whiteSpace=wrap;html=1;aspect=fixed;fillColor=#09555B;fontColor=#EEEEEE;strokeColor=#BAC8D3;labelBackgroundColor=none;" vertex="1" parent="1">
          <mxGeometry x="305" y="153" width="60" height="60" as="geometry" />
        </mxCell>
        <mxCell id="na5C6rlryGqaeeoqm-5C-16" value="1" style="text;html=1;align=center;verticalAlign=middle;resizable=0;points=[];autosize=1;strokeColor=#BAC8D3;fillColor=#09555B;fontColor=#EEEEEE;labelBackgroundColor=none;" vertex="1" parent="1">
          <mxGeometry x="255" y="178" width="30" height="30" as="geometry" />
        </mxCell>
        <mxCell id="na5C6rlryGqaeeoqm-5C-18" value="4" style="text;html=1;align=center;verticalAlign=middle;resizable=0;points=[];autosize=1;strokeColor=#BAC8D3;fillColor=#09555B;fontColor=#EEEEEE;labelBackgroundColor=none;" vertex="1" parent="1">
          <mxGeometry x="315" y="270" width="30" height="30" as="geometry" />
        </mxCell>
        <mxCell id="na5C6rlryGqaeeoqm-5C-19" value="" style="endArrow=none;html=1;rounded=0;exitX=0.5;exitY=0;exitDx=0;exitDy=0;shape=link;entryX=1;entryY=1;entryDx=0;entryDy=0;strokeColor=#0B4D6A;labelBackgroundColor=none;fontColor=default;" edge="1" parent="1" source="na5C6rlryGqaeeoqm-5C-6" target="na5C6rlryGqaeeoqm-5C-2">
          <mxGeometry width="50" height="50" relative="1" as="geometry">
            <mxPoint x="320" y="260" as="sourcePoint" />
            <mxPoint x="340" y="210" as="targetPoint" />
          </mxGeometry>
        </mxCell>
        <mxCell id="na5C6rlryGqaeeoqm-5C-20" value="15" style="text;html=1;align=center;verticalAlign=middle;resizable=0;points=[];autosize=1;strokeColor=#BAC8D3;fillColor=#09555B;fontColor=#EEEEEE;labelBackgroundColor=none;" vertex="1" parent="1">
          <mxGeometry x="460" y="208" width="40" height="30" as="geometry" />
        </mxCell>
        <mxCell id="na5C6rlryGqaeeoqm-5C-21" value="8" style="text;html=1;align=center;verticalAlign=middle;resizable=0;points=[];autosize=1;strokeColor=#BAC8D3;fillColor=#09555B;fontColor=#EEEEEE;labelBackgroundColor=none;" vertex="1" parent="1">
          <mxGeometry x="410" y="250" width="30" height="30" as="geometry" />
        </mxCell>
        <mxCell id="na5C6rlryGqaeeoqm-5C-22" value="5" style="text;html=1;align=center;verticalAlign=middle;resizable=0;points=[];autosize=1;strokeColor=#BAC8D3;fillColor=#09555B;fontColor=#EEEEEE;labelBackgroundColor=none;" vertex="1" parent="1">
          <mxGeometry x="530" y="258" width="30" height="30" as="geometry" />
        </mxCell>
        <mxCell id="na5C6rlryGqaeeoqm-5C-23" value="A" style="ellipse;whiteSpace=wrap;html=1;aspect=fixed;fillColor=#09555B;strokeColor=#BAC8D3;labelBackgroundColor=none;fontColor=#EEEEEE;" vertex="1" parent="1">
          <mxGeometry x="199" y="451" width="60" height="60" as="geometry" />
        </mxCell>
        <mxCell id="na5C6rlryGqaeeoqm-5C-24" value="D" style="ellipse;whiteSpace=wrap;html=1;aspect=fixed;fillColor=#09555B;strokeColor=#BAC8D3;labelBackgroundColor=none;fontColor=#EEEEEE;" vertex="1" parent="1">
          <mxGeometry x="609" y="406" width="60" height="60" as="geometry" />
        </mxCell>
        <mxCell id="na5C6rlryGqaeeoqm-5C-25" value="C" style="ellipse;whiteSpace=wrap;html=1;aspect=fixed;fillColor=#09555B;strokeColor=#BAC8D3;labelBackgroundColor=none;fontColor=#EEEEEE;" vertex="1" parent="1">
          <mxGeometry x="449" y="583" width="60" height="60" as="geometry" />
        </mxCell>
        <mxCell id="na5C6rlryGqaeeoqm-5C-26" value="" style="endArrow=classic;html=1;rounded=0;entryX=0.5;entryY=0;entryDx=0;entryDy=0;shape=link;exitX=1;exitY=0.5;exitDx=0;exitDy=0;strokeColor=#0B4D6A;labelBackgroundColor=none;fontColor=default;" edge="1" parent="1" source="na5C6rlryGqaeeoqm-5C-23" target="na5C6rlryGqaeeoqm-5C-25">
          <mxGeometry width="50" height="50" relative="1" as="geometry">
            <mxPoint x="249" y="513" as="sourcePoint" />
            <mxPoint x="299" y="463" as="targetPoint" />
          </mxGeometry>
        </mxCell>
        <mxCell id="na5C6rlryGqaeeoqm-5C-27" value="" style="endArrow=classic;html=1;rounded=0;entryX=-0.033;entryY=0.617;entryDx=0;entryDy=0;entryPerimeter=0;shape=link;strokeColor=#0B4D6A;labelBackgroundColor=none;fontColor=default;" edge="1" parent="1" target="na5C6rlryGqaeeoqm-5C-24">
          <mxGeometry width="50" height="50" relative="1" as="geometry">
            <mxPoint x="259" y="483" as="sourcePoint" />
            <mxPoint x="475.03999999999996" y="519" as="targetPoint" />
          </mxGeometry>
        </mxCell>
        <mxCell id="na5C6rlryGqaeeoqm-5C-28" value="" style="endArrow=classic;html=1;rounded=0;shape=link;exitX=1;exitY=0.5;exitDx=0;exitDy=0;strokeColor=#0B4D6A;labelBackgroundColor=none;fontColor=default;" edge="1" parent="1" source="na5C6rlryGqaeeoqm-5C-32">
          <mxGeometry width="50" height="50" relative="1" as="geometry">
            <mxPoint x="379" y="433" as="sourcePoint" />
            <mxPoint x="609" y="443" as="targetPoint" />
          </mxGeometry>
        </mxCell>
        <mxCell id="na5C6rlryGqaeeoqm-5C-29" value="" style="endArrow=classic;html=1;rounded=0;exitX=0.5;exitY=0;exitDx=0;exitDy=0;shape=link;entryX=-0.033;entryY=0.628;entryDx=0;entryDy=0;entryPerimeter=0;strokeColor=#0B4D6A;labelBackgroundColor=none;fontColor=default;" edge="1" parent="1" source="na5C6rlryGqaeeoqm-5C-25" target="na5C6rlryGqaeeoqm-5C-24">
          <mxGeometry width="50" height="50" relative="1" as="geometry">
            <mxPoint x="329" y="513" as="sourcePoint" />
            <mxPoint x="609" y="423" as="targetPoint" />
          </mxGeometry>
        </mxCell>
        <mxCell id="na5C6rlryGqaeeoqm-5C-31" value="" style="endArrow=classic;html=1;rounded=0;shape=link;strokeColor=#0B4D6A;labelBackgroundColor=none;fontColor=default;" edge="1" parent="1" target="na5C6rlryGqaeeoqm-5C-32">
          <mxGeometry width="50" height="50" relative="1" as="geometry">
            <mxPoint x="259" y="483" as="sourcePoint" />
            <mxPoint x="404" y="393" as="targetPoint" />
          </mxGeometry>
        </mxCell>
        <mxCell id="na5C6rlryGqaeeoqm-5C-32" value="B" style="ellipse;whiteSpace=wrap;html=1;aspect=fixed;fillColor=#09555B;strokeColor=#BAC8D3;labelBackgroundColor=none;fontColor=#EEEEEE;" vertex="1" parent="1">
          <mxGeometry x="314" y="406" width="60" height="60" as="geometry" />
        </mxCell>
        <mxCell id="na5C6rlryGqaeeoqm-5C-33" value="1" style="text;html=1;align=center;verticalAlign=middle;resizable=0;points=[];autosize=1;strokeColor=#BAC8D3;fillColor=#09555B;labelBackgroundColor=none;fontColor=#EEEEEE;" vertex="1" parent="1">
          <mxGeometry x="264" y="431" width="30" height="30" as="geometry" />
        </mxCell>
        <mxCell id="na5C6rlryGqaeeoqm-5C-34" value="1" style="text;html=1;align=center;verticalAlign=middle;resizable=0;points=[];autosize=1;strokeColor=#BAC8D3;fillColor=#09555B;labelBackgroundColor=none;fontColor=#EEEEEE;" vertex="1" parent="1">
          <mxGeometry x="324" y="523" width="30" height="30" as="geometry" />
        </mxCell>
        <mxCell id="na5C6rlryGqaeeoqm-5C-35" value="" style="endArrow=none;html=1;rounded=0;exitX=0.5;exitY=0;exitDx=0;exitDy=0;shape=link;entryX=1;entryY=1;entryDx=0;entryDy=0;strokeColor=#0B4D6A;labelBackgroundColor=none;fontColor=default;" edge="1" parent="1" source="na5C6rlryGqaeeoqm-5C-25" target="na5C6rlryGqaeeoqm-5C-32">
          <mxGeometry width="50" height="50" relative="1" as="geometry">
            <mxPoint x="329" y="513" as="sourcePoint" />
            <mxPoint x="349" y="463" as="targetPoint" />
          </mxGeometry>
        </mxCell>
        <mxCell id="na5C6rlryGqaeeoqm-5C-36" value="1" style="text;html=1;align=center;verticalAlign=middle;resizable=0;points=[];autosize=1;strokeColor=#BAC8D3;fillColor=#09555B;labelBackgroundColor=none;fontColor=#EEEEEE;" vertex="1" parent="1">
          <mxGeometry x="474" y="461" width="30" height="30" as="geometry" />
        </mxCell>
        <mxCell id="na5C6rlryGqaeeoqm-5C-37" value="1" style="text;html=1;align=center;verticalAlign=middle;resizable=0;points=[];autosize=1;strokeColor=#BAC8D3;fillColor=#09555B;labelBackgroundColor=none;fontColor=#EEEEEE;" vertex="1" parent="1">
          <mxGeometry x="419" y="503" width="30" height="30" as="geometry" />
        </mxCell>
        <mxCell id="na5C6rlryGqaeeoqm-5C-38" value="1" style="text;html=1;align=center;verticalAlign=middle;resizable=0;points=[];autosize=1;strokeColor=#BAC8D3;fillColor=#09555B;labelBackgroundColor=none;fontColor=#EEEEEE;" vertex="1" parent="1">
          <mxGeometry x="539" y="511" width="30" height="30" as="geometry" />
        </mxCell>
        <mxCell id="na5C6rlryGqaeeoqm-5C-39" value="1" style="text;html=1;align=center;verticalAlign=middle;resizable=0;points=[];autosize=1;strokeColor=#BAC8D3;fillColor=#09555B;labelBackgroundColor=none;fontColor=#EEEEEE;" vertex="1" parent="1">
          <mxGeometry x="464" y="408" width="30" height="30" as="geometry" />
        </mxCell>
        <mxCell id="na5C6rlryGqaeeoqm-5C-41" value="4" style="text;html=1;align=center;verticalAlign=middle;resizable=0;points=[];autosize=1;strokeColor=none;fillColor=none;fontColor=#EEEEEE;" vertex="1" parent="1">
          <mxGeometry x="445" y="128" width="30" height="30" as="geometry" />
        </mxCell>
        <mxCell id="na5C6rlryGqaeeoqm-5C-42" value="4" style="text;html=1;align=center;verticalAlign=middle;resizable=0;points=[];autosize=1;strokeColor=#BAC8D3;fillColor=#09555B;fontColor=#EEEEEE;labelBackgroundColor=none;" vertex="1" parent="1">
          <mxGeometry x="448" y="141" width="30" height="30" as="geometry" />
        </mxCell>
      </root>
    </mxGraphModel>
  </diagram>
  <diagram id="T6HFf8A25EkON_X7YvFb" name="Page-7">
    <mxGraphModel dx="794" dy="446" grid="1" gridSize="10" guides="1" tooltips="1" connect="1" arrows="1" fold="1" page="1" pageScale="1" pageWidth="690" pageHeight="980" math="0" shadow="0">
      <root>
        <mxCell id="0" />
        <mxCell id="1" parent="0" />
        <mxCell id="fgiK2e7lBkbXbNL8P2N0-1" value="A" style="ellipse;whiteSpace=wrap;html=1;aspect=fixed;fillColor=#09555B;fontColor=#EEEEEE;strokeColor=#BAC8D3;labelBackgroundColor=none;" parent="1" vertex="1">
          <mxGeometry x="190" y="120" width="60" height="60" as="geometry" />
        </mxCell>
        <mxCell id="fgiK2e7lBkbXbNL8P2N0-2" value="D" style="ellipse;whiteSpace=wrap;html=1;aspect=fixed;fillColor=#09555B;fontColor=#EEEEEE;strokeColor=#BAC8D3;labelBackgroundColor=none;" parent="1" vertex="1">
          <mxGeometry x="600" y="153" width="60" height="60" as="geometry" />
        </mxCell>
        <mxCell id="fgiK2e7lBkbXbNL8P2N0-3" value="C" style="ellipse;whiteSpace=wrap;html=1;aspect=fixed;fillColor=#09555B;fontColor=#EEEEEE;strokeColor=#BAC8D3;labelBackgroundColor=none;" parent="1" vertex="1">
          <mxGeometry x="440" y="252" width="60" height="60" as="geometry" />
        </mxCell>
        <mxCell id="fgiK2e7lBkbXbNL8P2N0-4" value="" style="endArrow=classic;html=1;rounded=0;entryX=0.5;entryY=0;entryDx=0;entryDy=0;shape=link;exitX=1;exitY=0.5;exitDx=0;exitDy=0;strokeColor=#0B4D6A;labelBackgroundColor=none;fontColor=default;" parent="1" source="fgiK2e7lBkbXbNL8P2N0-1" target="fgiK2e7lBkbXbNL8P2N0-3" edge="1">
          <mxGeometry width="50" height="50" relative="1" as="geometry">
            <mxPoint x="240" y="182" as="sourcePoint" />
            <mxPoint x="290" y="132" as="targetPoint" />
          </mxGeometry>
        </mxCell>
        <mxCell id="fgiK2e7lBkbXbNL8P2N0-5" value="" style="endArrow=classic;html=1;rounded=0;entryX=-0.033;entryY=0.617;entryDx=0;entryDy=0;entryPerimeter=0;shape=link;strokeColor=#0B4D6A;labelBackgroundColor=none;fontColor=default;" parent="1" edge="1">
          <mxGeometry width="50" height="50" relative="1" as="geometry">
            <mxPoint x="250" y="152" as="sourcePoint" />
            <mxPoint x="598.02" y="112.01999999999998" as="targetPoint" />
          </mxGeometry>
        </mxCell>
        <mxCell id="fgiK2e7lBkbXbNL8P2N0-8" value="1" style="text;html=1;align=center;verticalAlign=middle;resizable=0;points=[];autosize=1;strokeColor=none;fillColor=none;labelBackgroundColor=none;fontColor=#EEEEEE;" parent="1" vertex="1">
          <mxGeometry x="305" y="70" width="30" height="30" as="geometry" />
        </mxCell>
        <mxCell id="fgiK2e7lBkbXbNL8P2N0-9" value="" style="endArrow=classic;html=1;rounded=0;shape=link;strokeColor=#0B4D6A;labelBackgroundColor=none;fontColor=default;" parent="1" target="fgiK2e7lBkbXbNL8P2N0-10" edge="1">
          <mxGeometry width="50" height="50" relative="1" as="geometry">
            <mxPoint x="250" y="152" as="sourcePoint" />
            <mxPoint x="395" y="62" as="targetPoint" />
          </mxGeometry>
        </mxCell>
        <mxCell id="fgiK2e7lBkbXbNL8P2N0-10" value="B" style="ellipse;whiteSpace=wrap;html=1;aspect=fixed;fillColor=#09555B;fontColor=#EEEEEE;strokeColor=#BAC8D3;labelBackgroundColor=none;" parent="1" vertex="1">
          <mxGeometry x="305" y="75" width="60" height="60" as="geometry" />
        </mxCell>
        <mxCell id="fgiK2e7lBkbXbNL8P2N0-11" value="76%" style="text;html=1;align=center;verticalAlign=middle;resizable=0;points=[];autosize=1;strokeColor=#BAC8D3;fillColor=#09555B;fontColor=#EEEEEE;labelBackgroundColor=none;" parent="1" vertex="1">
          <mxGeometry x="245" y="100" width="50" height="30" as="geometry" />
        </mxCell>
        <mxCell id="fgiK2e7lBkbXbNL8P2N0-12" value="4" style="text;html=1;align=center;verticalAlign=middle;resizable=0;points=[];autosize=1;strokeColor=#BAC8D3;fillColor=#09555B;fontColor=#EEEEEE;labelBackgroundColor=none;" parent="1" vertex="1">
          <mxGeometry x="315" y="192" width="30" height="30" as="geometry" />
        </mxCell>
        <mxCell id="fgiK2e7lBkbXbNL8P2N0-14" value="5%" style="text;html=1;align=center;verticalAlign=middle;resizable=0;points=[];autosize=1;strokeColor=#BAC8D3;fillColor=#09555B;fontColor=#EEEEEE;labelBackgroundColor=none;" parent="1" vertex="1">
          <mxGeometry x="460" y="130" width="40" height="30" as="geometry" />
        </mxCell>
        <mxCell id="fgiK2e7lBkbXbNL8P2N0-17" value="4" style="text;html=1;align=center;verticalAlign=middle;resizable=0;points=[];autosize=1;strokeColor=none;fillColor=none;fontColor=#EEEEEE;" parent="1" vertex="1">
          <mxGeometry x="445" y="128" width="30" height="30" as="geometry" />
        </mxCell>
        <mxCell id="9Hfhq5x4n8xXXSJye7-3-1" value="" style="endArrow=none;html=1;rounded=0;jumpSize=9;shape=link;strokeWidth=5;entryX=0;entryY=1;entryDx=0;entryDy=0;" edge="1" parent="1" target="9Hfhq5x4n8xXXSJye7-3-3">
          <mxGeometry width="50" height="50" relative="1" as="geometry">
            <mxPoint x="111" y="470" as="sourcePoint" />
            <mxPoint x="161" y="420" as="targetPoint" />
          </mxGeometry>
        </mxCell>
        <mxCell id="9Hfhq5x4n8xXXSJye7-3-2" value="1&lt;span style=&quot;color: rgba(0, 0, 0, 0); font-family: monospace; font-size: 0px; text-align: start; text-wrap: nowrap;&quot;&gt;%3CmxGraphModel%3E%3Croot%3E%3CmxCell%20id%3D%220%22%2F%3E%3CmxCell%20id%3D%221%22%20parent%3D%220%22%2F%3E%3CmxCell%20id%3D%222%22%20value%3D%22C%22%20style%3D%22ellipse%3BwhiteSpace%3Dwrap%3Bhtml%3D1%3Baspect%3Dfixed%3BfillColor%3D%2309555B%3BfontColor%3D%23EEEEEE%3BstrokeColor%3D%23BAC8D3%3BlabelBackgroundColor%3Dnone%3B%22%20vertex%3D%221%22%20parent%3D%221%22%3E%3CmxGeometry%20x%3D%22440%22%20y%3D%22330%22%20width%3D%2260%22%20height%3D%2260%22%20as%3D%22geometry%22%2F%3E%3C%2FmxCell%3E%3C%2Froot%3E%3C%2FmxGraphModel%3E&lt;/span&gt;" style="ellipse;whiteSpace=wrap;html=1;aspect=fixed;fillColor=#09555B;fontColor=#EEEEEE;strokeColor=#BAC8D3;labelBackgroundColor=none;" vertex="1" parent="1">
          <mxGeometry x="61" y="460" width="60" height="60" as="geometry" />
        </mxCell>
        <mxCell id="9Hfhq5x4n8xXXSJye7-3-3" value="5" style="ellipse;whiteSpace=wrap;html=1;aspect=fixed;fillColor=#09555B;fontColor=#EEEEEE;strokeColor=#BAC8D3;labelBackgroundColor=none;" vertex="1" parent="1">
          <mxGeometry x="176" y="350" width="60" height="60" as="geometry" />
        </mxCell>
        <mxCell id="9Hfhq5x4n8xXXSJye7-3-4" value="2" style="ellipse;whiteSpace=wrap;html=1;aspect=fixed;fillColor=#09555B;fontColor=#EEEEEE;strokeColor=#BAC8D3;labelBackgroundColor=none;" vertex="1" parent="1">
          <mxGeometry x="261" y="550" width="60" height="60" as="geometry" />
        </mxCell>
        <mxCell id="9Hfhq5x4n8xXXSJye7-3-5" value="3" style="ellipse;whiteSpace=wrap;html=1;aspect=fixed;fillColor=#09555B;fontColor=#EEEEEE;strokeColor=#BAC8D3;labelBackgroundColor=none;" vertex="1" parent="1">
          <mxGeometry x="401" y="450" width="60" height="60" as="geometry" />
        </mxCell>
        <mxCell id="9Hfhq5x4n8xXXSJye7-3-6" value="4" style="ellipse;whiteSpace=wrap;html=1;aspect=fixed;fillColor=#09555B;fontColor=#EEEEEE;strokeColor=#BAC8D3;labelBackgroundColor=none;" vertex="1" parent="1">
          <mxGeometry x="361" y="320" width="60" height="60" as="geometry" />
        </mxCell>
        <mxCell id="9Hfhq5x4n8xXXSJye7-3-7" value="" style="endArrow=none;html=1;rounded=0;jumpSize=9;shape=link;strokeWidth=5;entryX=0.367;entryY=0.011;entryDx=0;entryDy=0;entryPerimeter=0;" edge="1" parent="1" source="9Hfhq5x4n8xXXSJye7-3-3" target="9Hfhq5x4n8xXXSJye7-3-4">
          <mxGeometry width="50" height="50" relative="1" as="geometry">
            <mxPoint x="121" y="480" as="sourcePoint" />
            <mxPoint x="195" y="411" as="targetPoint" />
          </mxGeometry>
        </mxCell>
        <mxCell id="9Hfhq5x4n8xXXSJye7-3-8" value="" style="endArrow=none;html=1;rounded=0;jumpSize=9;shape=link;strokeWidth=5;entryX=0.289;entryY=0.033;entryDx=0;entryDy=0;entryPerimeter=0;" edge="1" parent="1" source="9Hfhq5x4n8xXXSJye7-3-6" target="9Hfhq5x4n8xXXSJye7-3-5">
          <mxGeometry width="50" height="50" relative="1" as="geometry">
            <mxPoint x="131" y="490" as="sourcePoint" />
            <mxPoint x="205" y="421" as="targetPoint" />
          </mxGeometry>
        </mxCell>
        <mxCell id="9Hfhq5x4n8xXXSJye7-3-9" value="" style="endArrow=none;html=1;rounded=0;exitX=0.967;exitY=0.367;exitDx=0;exitDy=0;exitPerimeter=0;entryX=0;entryY=1;entryDx=0;entryDy=0;" edge="1" parent="1" source="9Hfhq5x4n8xXXSJye7-3-2" target="9Hfhq5x4n8xXXSJye7-3-6">
          <mxGeometry width="50" height="50" relative="1" as="geometry">
            <mxPoint x="261" y="420" as="sourcePoint" />
            <mxPoint x="311" y="370" as="targetPoint" />
          </mxGeometry>
        </mxCell>
        <mxCell id="9Hfhq5x4n8xXXSJye7-3-11" value="" style="endArrow=none;html=1;rounded=0;entryX=0.367;entryY=1.011;entryDx=0;entryDy=0;entryPerimeter=0;exitX=0.644;exitY=0.011;exitDx=0;exitDy=0;exitPerimeter=0;" edge="1" parent="1" source="9Hfhq5x4n8xXXSJye7-3-4" target="9Hfhq5x4n8xXXSJye7-3-6">
          <mxGeometry width="50" height="50" relative="1" as="geometry">
            <mxPoint x="261" y="420" as="sourcePoint" />
            <mxPoint x="311" y="370" as="targetPoint" />
          </mxGeometry>
        </mxCell>
        <mxCell id="9Hfhq5x4n8xXXSJye7-3-12" value="" style="endArrow=none;html=1;rounded=0;entryX=0.2;entryY=0.967;entryDx=0;entryDy=0;entryPerimeter=0;exitX=1.011;exitY=0.3;exitDx=0;exitDy=0;exitPerimeter=0;" edge="1" parent="1" source="9Hfhq5x4n8xXXSJye7-3-4" target="9Hfhq5x4n8xXXSJye7-3-5">
          <mxGeometry width="50" height="50" relative="1" as="geometry">
            <mxPoint x="261" y="420" as="sourcePoint" />
            <mxPoint x="311" y="370" as="targetPoint" />
          </mxGeometry>
        </mxCell>
        <mxCell id="9Hfhq5x4n8xXXSJye7-3-13" value="" style="endArrow=none;html=1;rounded=0;exitX=1;exitY=0.5;exitDx=0;exitDy=0;entryX=0;entryY=0.5;entryDx=0;entryDy=0;" edge="1" parent="1" source="9Hfhq5x4n8xXXSJye7-3-2" target="9Hfhq5x4n8xXXSJye7-3-5">
          <mxGeometry width="50" height="50" relative="1" as="geometry">
            <mxPoint x="261" y="420" as="sourcePoint" />
            <mxPoint x="311" y="370" as="targetPoint" />
          </mxGeometry>
        </mxCell>
        <mxCell id="9Hfhq5x4n8xXXSJye7-3-15" value="1&lt;span style=&quot;color: rgba(0, 0, 0, 0); font-family: monospace; font-size: 0px; text-align: start; text-wrap: nowrap;&quot;&gt;%3CmxGraphModel%3E%3Croot%3E%3CmxCell%20id%3D%220%22%2F%3E%3CmxCell%20id%3D%221%22%20parent%3D%220%22%2F%3E%3CmxCell%20id%3D%222%22%20value%3D%22C%22%20style%3D%22ellipse%3BwhiteSpace%3Dwrap%3Bhtml%3D1%3Baspect%3Dfixed%3BfillColor%3D%2309555B%3BfontColor%3D%23EEEEEE%3BstrokeColor%3D%23BAC8D3%3BlabelBackgroundColor%3Dnone%3B%22%20vertex%3D%221%22%20parent%3D%221%22%3E%3CmxGeometry%20x%3D%22440%22%20y%3D%22330%22%20width%3D%2260%22%20height%3D%2260%22%20as%3D%22geometry%22%2F%3E%3C%2FmxCell%3E%3C%2Froot%3E%3C%2FmxGraphModel%3E&lt;/span&gt;" style="ellipse;whiteSpace=wrap;html=1;aspect=fixed;fillColor=#09555B;fontColor=#EEEEEE;strokeColor=#BAC8D3;labelBackgroundColor=none;" vertex="1" parent="1">
          <mxGeometry x="130" y="787" width="60" height="60" as="geometry" />
        </mxCell>
        <mxCell id="9Hfhq5x4n8xXXSJye7-3-16" value="5" style="ellipse;whiteSpace=wrap;html=1;aspect=fixed;fillColor=#09555B;fontColor=#EEEEEE;strokeColor=#BAC8D3;labelBackgroundColor=none;" vertex="1" parent="1">
          <mxGeometry x="245" y="677" width="60" height="60" as="geometry" />
        </mxCell>
        <mxCell id="9Hfhq5x4n8xXXSJye7-3-17" value="2" style="ellipse;whiteSpace=wrap;html=1;aspect=fixed;fillColor=#09555B;fontColor=#EEEEEE;strokeColor=#BAC8D3;labelBackgroundColor=none;" vertex="1" parent="1">
          <mxGeometry x="330" y="877" width="60" height="60" as="geometry" />
        </mxCell>
        <mxCell id="9Hfhq5x4n8xXXSJye7-3-18" value="3" style="ellipse;whiteSpace=wrap;html=1;aspect=fixed;fillColor=#09555B;fontColor=#EEEEEE;strokeColor=#BAC8D3;labelBackgroundColor=none;" vertex="1" parent="1">
          <mxGeometry x="470" y="777" width="60" height="60" as="geometry" />
        </mxCell>
        <mxCell id="9Hfhq5x4n8xXXSJye7-3-19" value="4" style="ellipse;whiteSpace=wrap;html=1;aspect=fixed;fillColor=#09555B;fontColor=#EEEEEE;strokeColor=#BAC8D3;labelBackgroundColor=none;" vertex="1" parent="1">
          <mxGeometry x="430" y="647" width="60" height="60" as="geometry" />
        </mxCell>
        <mxCell id="9Hfhq5x4n8xXXSJye7-3-22" value="" style="endArrow=none;html=1;rounded=0;exitX=0.967;exitY=0.367;exitDx=0;exitDy=0;exitPerimeter=0;entryX=0;entryY=1;entryDx=0;entryDy=0;" edge="1" parent="1" source="9Hfhq5x4n8xXXSJye7-3-15" target="9Hfhq5x4n8xXXSJye7-3-19">
          <mxGeometry width="50" height="50" relative="1" as="geometry">
            <mxPoint x="330" y="747" as="sourcePoint" />
            <mxPoint x="380" y="697" as="targetPoint" />
          </mxGeometry>
        </mxCell>
        <mxCell id="9Hfhq5x4n8xXXSJye7-3-23" value="" style="endArrow=none;html=1;rounded=0;entryX=0.367;entryY=1.011;entryDx=0;entryDy=0;entryPerimeter=0;exitX=0.644;exitY=0.011;exitDx=0;exitDy=0;exitPerimeter=0;" edge="1" parent="1" source="9Hfhq5x4n8xXXSJye7-3-17" target="9Hfhq5x4n8xXXSJye7-3-19">
          <mxGeometry width="50" height="50" relative="1" as="geometry">
            <mxPoint x="330" y="747" as="sourcePoint" />
            <mxPoint x="380" y="697" as="targetPoint" />
          </mxGeometry>
        </mxCell>
        <mxCell id="9Hfhq5x4n8xXXSJye7-3-24" value="" style="endArrow=none;html=1;rounded=0;entryX=0.2;entryY=0.967;entryDx=0;entryDy=0;entryPerimeter=0;exitX=1.011;exitY=0.3;exitDx=0;exitDy=0;exitPerimeter=0;" edge="1" parent="1" source="9Hfhq5x4n8xXXSJye7-3-17" target="9Hfhq5x4n8xXXSJye7-3-18">
          <mxGeometry width="50" height="50" relative="1" as="geometry">
            <mxPoint x="330" y="747" as="sourcePoint" />
            <mxPoint x="380" y="697" as="targetPoint" />
          </mxGeometry>
        </mxCell>
        <mxCell id="9Hfhq5x4n8xXXSJye7-3-25" value="" style="endArrow=none;html=1;rounded=0;exitX=1;exitY=0.5;exitDx=0;exitDy=0;entryX=0;entryY=0.5;entryDx=0;entryDy=0;" edge="1" parent="1" source="9Hfhq5x4n8xXXSJye7-3-15" target="9Hfhq5x4n8xXXSJye7-3-18">
          <mxGeometry width="50" height="50" relative="1" as="geometry">
            <mxPoint x="330" y="747" as="sourcePoint" />
            <mxPoint x="380" y="697" as="targetPoint" />
          </mxGeometry>
        </mxCell>
        <mxCell id="9Hfhq5x4n8xXXSJye7-3-26" value="" style="endArrow=none;html=1;rounded=0;" edge="1" parent="1" source="9Hfhq5x4n8xXXSJye7-3-17" target="9Hfhq5x4n8xXXSJye7-3-16">
          <mxGeometry width="50" height="50" relative="1" as="geometry">
            <mxPoint x="320" y="790" as="sourcePoint" />
            <mxPoint x="370" y="740" as="targetPoint" />
          </mxGeometry>
        </mxCell>
        <mxCell id="9Hfhq5x4n8xXXSJye7-3-27" value="" style="endArrow=none;html=1;rounded=0;exitX=1;exitY=0.217;exitDx=0;exitDy=0;exitPerimeter=0;entryX=0;entryY=1;entryDx=0;entryDy=0;" edge="1" parent="1" source="9Hfhq5x4n8xXXSJye7-3-15" target="9Hfhq5x4n8xXXSJye7-3-16">
          <mxGeometry width="50" height="50" relative="1" as="geometry">
            <mxPoint x="320" y="790" as="sourcePoint" />
            <mxPoint x="370" y="740" as="targetPoint" />
          </mxGeometry>
        </mxCell>
        <mxCell id="9Hfhq5x4n8xXXSJye7-3-28" value="" style="endArrow=none;html=1;rounded=0;entryX=0.644;entryY=0.983;entryDx=0;entryDy=0;entryPerimeter=0;" edge="1" parent="1" source="9Hfhq5x4n8xXXSJye7-3-18" target="9Hfhq5x4n8xXXSJye7-3-19">
          <mxGeometry width="50" height="50" relative="1" as="geometry">
            <mxPoint x="320" y="790" as="sourcePoint" />
            <mxPoint x="370" y="740" as="targetPoint" />
          </mxGeometry>
        </mxCell>
      </root>
    </mxGraphModel>
  </diagram>
  <diagram name="Copie de Page-7" id="9jwO3uxk_17bLz2hIrUE">
    <mxGraphModel dx="794" dy="446" grid="1" gridSize="10" guides="1" tooltips="1" connect="1" arrows="1" fold="1" page="1" pageScale="1" pageWidth="690" pageHeight="980" math="0" shadow="0">
      <root>
        <mxCell id="7QkkbY4sQchOm5wq9C5y-0" />
        <mxCell id="7QkkbY4sQchOm5wq9C5y-1" parent="7QkkbY4sQchOm5wq9C5y-0" />
        <mxCell id="MwDg3wp0UoMg0gLdb8GF-0" value="1&lt;span style=&quot;color: rgba(0, 0, 0, 0); font-family: monospace; font-size: 0px; text-align: start; text-wrap: nowrap;&quot;&gt;%3CmxGraphModel%3E%3Croot%3E%3CmxCell%20id%3D%220%22%2F%3E%3CmxCell%20id%3D%221%22%20parent%3D%220%22%2F%3E%3CmxCell%20id%3D%222%22%20value%3D%22C%22%20style%3D%22ellipse%3BwhiteSpace%3Dwrap%3Bhtml%3D1%3Baspect%3Dfixed%3BfillColor%3D%2309555B%3BfontColor%3D%23EEEEEE%3BstrokeColor%3D%23BAC8D3%3BlabelBackgroundColor%3Dnone%3B%22%20vertex%3D%221%22%20parent%3D%221%22%3E%3CmxGeometry%20x%3D%22440%22%20y%3D%22330%22%20width%3D%2260%22%20height%3D%2260%22%20as%3D%22geometry%22%2F%3E%3C%2FmxCell%3E%3C%2Froot%3E%3C%2FmxGraphModel%3E&lt;/span&gt;" style="ellipse;whiteSpace=wrap;html=1;aspect=fixed;fillColor=#09555B;fontColor=#EEEEEE;strokeColor=#BAC8D3;labelBackgroundColor=none;" vertex="1" parent="7QkkbY4sQchOm5wq9C5y-1">
          <mxGeometry x="140" y="491" width="60" height="60" as="geometry" />
        </mxCell>
        <mxCell id="MwDg3wp0UoMg0gLdb8GF-1" value="5" style="ellipse;whiteSpace=wrap;html=1;aspect=fixed;fillColor=#09555B;fontColor=#EEEEEE;strokeColor=#BAC8D3;labelBackgroundColor=none;" vertex="1" parent="7QkkbY4sQchOm5wq9C5y-1">
          <mxGeometry x="255" y="381" width="60" height="60" as="geometry" />
        </mxCell>
        <mxCell id="MwDg3wp0UoMg0gLdb8GF-2" value="2" style="ellipse;whiteSpace=wrap;html=1;aspect=fixed;fillColor=#09555B;fontColor=#EEEEEE;strokeColor=#BAC8D3;labelBackgroundColor=none;" vertex="1" parent="7QkkbY4sQchOm5wq9C5y-1">
          <mxGeometry x="340" y="581" width="60" height="60" as="geometry" />
        </mxCell>
        <mxCell id="MwDg3wp0UoMg0gLdb8GF-3" value="3" style="ellipse;whiteSpace=wrap;html=1;aspect=fixed;fillColor=#09555B;fontColor=#EEEEEE;strokeColor=#BAC8D3;labelBackgroundColor=none;" vertex="1" parent="7QkkbY4sQchOm5wq9C5y-1">
          <mxGeometry x="480" y="481" width="60" height="60" as="geometry" />
        </mxCell>
        <mxCell id="MwDg3wp0UoMg0gLdb8GF-4" value="4" style="ellipse;whiteSpace=wrap;html=1;aspect=fixed;fillColor=#09555B;fontColor=#EEEEEE;strokeColor=#BAC8D3;labelBackgroundColor=none;" vertex="1" parent="7QkkbY4sQchOm5wq9C5y-1">
          <mxGeometry x="440" y="351" width="60" height="60" as="geometry" />
        </mxCell>
        <mxCell id="MwDg3wp0UoMg0gLdb8GF-14" value="" style="endArrow=classic;html=1;rounded=0;exitX=0.978;exitY=0.317;exitDx=0;exitDy=0;entryX=0;entryY=1;entryDx=0;entryDy=0;exitPerimeter=0;" edge="1" parent="7QkkbY4sQchOm5wq9C5y-1" source="MwDg3wp0UoMg0gLdb8GF-0" target="MwDg3wp0UoMg0gLdb8GF-4">
          <mxGeometry width="50" height="50" relative="1" as="geometry">
            <mxPoint x="320" y="580" as="sourcePoint" />
            <mxPoint x="420" y="420" as="targetPoint" />
          </mxGeometry>
        </mxCell>
        <mxCell id="MwDg3wp0UoMg0gLdb8GF-15" value="" style="endArrow=classic;html=1;rounded=0;entryX=1;entryY=0;entryDx=0;entryDy=0;exitX=0;exitY=1;exitDx=0;exitDy=0;" edge="1" parent="7QkkbY4sQchOm5wq9C5y-1" source="MwDg3wp0UoMg0gLdb8GF-1" target="MwDg3wp0UoMg0gLdb8GF-0">
          <mxGeometry width="50" height="50" relative="1" as="geometry">
            <mxPoint x="320" y="580" as="sourcePoint" />
            <mxPoint x="370" y="530" as="targetPoint" />
          </mxGeometry>
        </mxCell>
        <mxCell id="MwDg3wp0UoMg0gLdb8GF-16" value="" style="endArrow=classic;html=1;rounded=0;" edge="1" parent="7QkkbY4sQchOm5wq9C5y-1" source="MwDg3wp0UoMg0gLdb8GF-4" target="MwDg3wp0UoMg0gLdb8GF-3">
          <mxGeometry width="50" height="50" relative="1" as="geometry">
            <mxPoint x="320" y="580" as="sourcePoint" />
            <mxPoint x="500" y="480" as="targetPoint" />
          </mxGeometry>
        </mxCell>
        <mxCell id="MwDg3wp0UoMg0gLdb8GF-17" value="" style="endArrow=classic;html=1;rounded=0;entryX=1;entryY=0;entryDx=0;entryDy=0;exitX=0;exitY=1;exitDx=0;exitDy=0;" edge="1" parent="7QkkbY4sQchOm5wq9C5y-1" source="MwDg3wp0UoMg0gLdb8GF-3" target="MwDg3wp0UoMg0gLdb8GF-2">
          <mxGeometry width="50" height="50" relative="1" as="geometry">
            <mxPoint x="320" y="580" as="sourcePoint" />
            <mxPoint x="370" y="530" as="targetPoint" />
          </mxGeometry>
        </mxCell>
        <mxCell id="MwDg3wp0UoMg0gLdb8GF-18" value="" style="endArrow=classic;html=1;rounded=0;entryX=0.661;entryY=0.983;entryDx=0;entryDy=0;entryPerimeter=0;" edge="1" parent="7QkkbY4sQchOm5wq9C5y-1" source="MwDg3wp0UoMg0gLdb8GF-2" target="MwDg3wp0UoMg0gLdb8GF-1">
          <mxGeometry width="50" height="50" relative="1" as="geometry">
            <mxPoint x="320" y="580" as="sourcePoint" />
            <mxPoint x="370" y="530" as="targetPoint" />
          </mxGeometry>
        </mxCell>
        <mxCell id="MwDg3wp0UoMg0gLdb8GF-19" value="1&lt;span style=&quot;color: rgba(0, 0, 0, 0); font-family: monospace; font-size: 0px; text-align: start; text-wrap: nowrap;&quot;&gt;%3CmxGraphModel%3E%3Croot%3E%3CmxCell%20id%3D%220%22%2F%3E%3CmxCell%20id%3D%221%22%20parent%3D%220%22%2F%3E%3CmxCell%20id%3D%222%22%20value%3D%22C%22%20style%3D%22ellipse%3BwhiteSpace%3Dwrap%3Bhtml%3D1%3Baspect%3Dfixed%3BfillColor%3D%2309555B%3BfontColor%3D%23EEEEEE%3BstrokeColor%3D%23BAC8D3%3BlabelBackgroundColor%3Dnone%3B%22%20vertex%3D%221%22%20parent%3D%221%22%3E%3CmxGeometry%20x%3D%22440%22%20y%3D%22330%22%20width%3D%2260%22%20height%3D%2260%22%20as%3D%22geometry%22%2F%3E%3C%2FmxCell%3E%3C%2Froot%3E%3C%2FmxGraphModel%3E&lt;/span&gt;" style="ellipse;whiteSpace=wrap;html=1;aspect=fixed;fillColor=#09555B;fontColor=#EEEEEE;strokeColor=#BAC8D3;labelBackgroundColor=none;" vertex="1" parent="7QkkbY4sQchOm5wq9C5y-1">
          <mxGeometry x="150" y="799" width="60" height="60" as="geometry" />
        </mxCell>
        <mxCell id="MwDg3wp0UoMg0gLdb8GF-20" value="5" style="ellipse;whiteSpace=wrap;html=1;aspect=fixed;fillColor=#09555B;fontColor=#EEEEEE;strokeColor=#BAC8D3;labelBackgroundColor=none;" vertex="1" parent="7QkkbY4sQchOm5wq9C5y-1">
          <mxGeometry x="265" y="689" width="60" height="60" as="geometry" />
        </mxCell>
        <mxCell id="MwDg3wp0UoMg0gLdb8GF-21" value="2" style="ellipse;whiteSpace=wrap;html=1;aspect=fixed;fillColor=#09555B;fontColor=#EEEEEE;strokeColor=#BAC8D3;labelBackgroundColor=none;" vertex="1" parent="7QkkbY4sQchOm5wq9C5y-1">
          <mxGeometry x="350" y="889" width="60" height="60" as="geometry" />
        </mxCell>
        <mxCell id="MwDg3wp0UoMg0gLdb8GF-22" value="3" style="ellipse;whiteSpace=wrap;html=1;aspect=fixed;fillColor=#09555B;fontColor=#EEEEEE;strokeColor=#BAC8D3;labelBackgroundColor=none;" vertex="1" parent="7QkkbY4sQchOm5wq9C5y-1">
          <mxGeometry x="490" y="789" width="60" height="60" as="geometry" />
        </mxCell>
        <mxCell id="MwDg3wp0UoMg0gLdb8GF-23" value="4" style="ellipse;whiteSpace=wrap;html=1;aspect=fixed;fillColor=#09555B;fontColor=#EEEEEE;strokeColor=#BAC8D3;labelBackgroundColor=none;" vertex="1" parent="7QkkbY4sQchOm5wq9C5y-1">
          <mxGeometry x="450" y="659" width="60" height="60" as="geometry" />
        </mxCell>
        <mxCell id="MwDg3wp0UoMg0gLdb8GF-24" value="" style="endArrow=classic;html=1;rounded=0;exitX=0;exitY=1;exitDx=0;exitDy=0;" edge="1" parent="7QkkbY4sQchOm5wq9C5y-1" source="MwDg3wp0UoMg0gLdb8GF-23" target="MwDg3wp0UoMg0gLdb8GF-21">
          <mxGeometry width="50" height="50" relative="1" as="geometry">
            <mxPoint x="330" y="888" as="sourcePoint" />
            <mxPoint x="430" y="728" as="targetPoint" />
          </mxGeometry>
        </mxCell>
        <mxCell id="MwDg3wp0UoMg0gLdb8GF-25" value="" style="endArrow=classic;html=1;rounded=0;entryX=1;entryY=0;entryDx=0;entryDy=0;exitX=0;exitY=1;exitDx=0;exitDy=0;" edge="1" parent="7QkkbY4sQchOm5wq9C5y-1" source="MwDg3wp0UoMg0gLdb8GF-20" target="MwDg3wp0UoMg0gLdb8GF-19">
          <mxGeometry width="50" height="50" relative="1" as="geometry">
            <mxPoint x="330" y="888" as="sourcePoint" />
            <mxPoint x="380" y="838" as="targetPoint" />
          </mxGeometry>
        </mxCell>
        <mxCell id="MwDg3wp0UoMg0gLdb8GF-26" value="" style="endArrow=classic;html=1;rounded=0;" edge="1" parent="7QkkbY4sQchOm5wq9C5y-1" source="MwDg3wp0UoMg0gLdb8GF-22" target="MwDg3wp0UoMg0gLdb8GF-23">
          <mxGeometry width="50" height="50" relative="1" as="geometry">
            <mxPoint x="330" y="888" as="sourcePoint" />
            <mxPoint x="480" y="730" as="targetPoint" />
          </mxGeometry>
        </mxCell>
        <mxCell id="MwDg3wp0UoMg0gLdb8GF-27" value="" style="endArrow=classic;html=1;rounded=0;exitX=1;exitY=0.5;exitDx=0;exitDy=0;" edge="1" parent="7QkkbY4sQchOm5wq9C5y-1" source="MwDg3wp0UoMg0gLdb8GF-19" target="MwDg3wp0UoMg0gLdb8GF-22">
          <mxGeometry width="50" height="50" relative="1" as="geometry">
            <mxPoint x="330" y="888" as="sourcePoint" />
            <mxPoint x="380" y="838" as="targetPoint" />
          </mxGeometry>
        </mxCell>
        <mxCell id="MwDg3wp0UoMg0gLdb8GF-28" value="" style="endArrow=classic;html=1;rounded=0;entryX=0.661;entryY=0.983;entryDx=0;entryDy=0;entryPerimeter=0;" edge="1" parent="7QkkbY4sQchOm5wq9C5y-1" source="MwDg3wp0UoMg0gLdb8GF-21" target="MwDg3wp0UoMg0gLdb8GF-20">
          <mxGeometry width="50" height="50" relative="1" as="geometry">
            <mxPoint x="330" y="888" as="sourcePoint" />
            <mxPoint x="380" y="838" as="targetPoint" />
          </mxGeometry>
        </mxCell>
      </root>
    </mxGraphModel>
  </diagram>
</mxfile>
